/* XPM */
static char *result[] = {
/* columns rows colors chars-per-pixel */
"50 50 221 2 ",
"   c #0B0B0B",
".  c #14161A",
"X  c #1C1C1C",
"o  c #23191E",
"O  c #171B25",
"+  c #25192B",
"@  c #371C29",
"#  c #2B1B34",
"$  c #391638",
"%  c #1E252B",
"&  c #1A2836",
"*  c #1D313A",
"=  c #232424",
"-  c #24282D",
";  c #2B2B2B",
":  c #33282C",
">  c #2E322D",
",  c #32392F",
"<  c #362A39",
"1  c #263539",
"2  c #363A3D",
"3  c #4B1D37",
"4  c #472638",
"5  c #522A3A",
"6  c #5D353E",
"7  c #65223E",
"8  c #35423A",
"9  c #53413E",
"0  c #1C3344",
"q  c #292B43",
"w  c #382B47",
"e  c #293748",
"r  c #363945",
"t  c #2B3C53",
"y  c #353754",
"u  c #512543",
"i  c #4B374B",
"p  c #52384F",
"a  c #6C314D",
"s  c #2B434B",
"d  c #344448",
"f  c #254458",
"g  c #334857",
"h  c #3C575D",
"j  c #294B64",
"k  c #344A69",
"l  c #3B5467",
"z  c #2C5873",
"x  c #3F5B78",
"c  c #36637D",
"v  c #53484F",
"b  c #4B5A46",
"n  c #474857",
"m  c #425C57",
"M  c #56565B",
"N  c #6C4A4B",
"B  c #724F54",
"V  c #4C6257",
"C  c #576751",
"Z  c #546957",
"A  c #706457",
"S  c #657A5B",
"D  c #484C68",
"F  c #574E6A",
"G  c #43546A",
"H  c #535762",
"J  c #455977",
"K  c #67576A",
"L  c #4A6568",
"P  c #566769",
"I  c #5A786A",
"U  c #4C6877",
"Y  c #546879",
"T  c #4F7179",
"R  c #5B767A",
"E  c #6F6868",
"W  c #657768",
"Q  c #6D6E73",
"!  c #65737C",
"~  c #74767A",
"^  c #8B5D5D",
"/  c #846A5F",
"(  c #964F76",
")  c #A04F75",
"_  c #8A6A66",
"`  c #8F746C",
"'  c #97786C",
"]  c #A37771",
"[  c #6A805F",
"{  c #6D8462",
"}  c #768F68",
"|  c #6B8979",
" . c #76977A",
".. c #7FA279",
"X. c #8E8E72",
"o. c #998A78",
"O. c #839775",
"+. c #A38B78",
"@. c #86A57C",
"#. c #9BA27D",
"$. c #8FB17E",
"%. c #A0A27F",
"&. c #365F80",
"*. c #316987",
"=. c #387495",
"-. c #556D86",
";. c #5B7687",
":. c #627383",
">. c #687886",
",. c #797984",
"<. c #3E8AB0",
"1. c #5B8998",
"2. c #678885",
"3. c #788789",
"4. c #779687",
"5. c #6C8A99",
"6. c #788996",
"7. c #7A9A93",
"8. c #76A38F",
"9. c #5E8AA1",
"0. c #6E8DA4",
"q. c #7A97A6",
"w. c #61A4CB",
"e. c #86858C",
"r. c #8D938A",
"t. c #8A8D95",
"y. c #839799",
"u. c #91949C",
"i. c #B29587",
"p. c #87AA83",
"a. c #81A48A",
"s. c #85AA8B",
"d. c #8AAE8C",
"f. c #8EB285",
"g. c #8FB38D",
"h. c #95B888",
"j. c #94BA8C",
"k. c #89AC95",
"l. c #8AB293",
"z. c #95BB92",
"x. c #95B994",
"c. c #A3A280",
"v. c #A9B98B",
"b. c #BCA79A",
"n. c #828DA3",
"m. c #8896A8",
"M. c #9599A5",
"N. c #969FB5",
"B. c #95A3AB",
"V. c #89A5B8",
"C. c #96A7B5",
"Z. c #99B6B6",
"A. c #A3A3AA",
"S. c #A8ABB7",
"D. c #A9B0B5",
"F. c #B1B2B9",
"G. c #C69D8F",
"H. c #CAA694",
"J. c #D1AC9A",
"K. c #D5B29E",
"L. c #DBB9A5",
"P. c #C9B8B0",
"I. c #E2BBA7",
"U. c #9BC18E",
"Y. c #9CC493",
"T. c #94C199",
"R. c #A2CD8D",
"E. c #A4CB94",
"W. c #AACA94",
"Q. c #A5CE99",
"!. c #A7D392",
"~. c #AAD395",
"^. c #ACD896",
"/. c #A7D19A",
"(. c #ADD499",
"). c #AEDA9B",
"_. c #B0D79B",
"`. c #B3DC9D",
"'. c #B5E09F",
"]. c #ADCDAD",
"[. c #B4DBA3",
"{. c #B6E2A0",
"}. c #BAE4A5",
"|. c #BDE6A9",
" X c #BFE2B1",
".X c #D6C3BB",
"XX c #E9C2AE",
"oX c #F3CCB4",
"OX c #C0E7AC",
"+X c #C2E9AF",
"@X c #C1E4B3",
"#X c #C5EAB3",
"$X c #C8ECB5",
"%X c #CAEDB8",
"&X c #93AAC1",
"*X c #A4B5C3",
"=X c #A9B9C8",
"-X c #BBBBC5",
";X c #B5BAC8",
":X c #B4BDD2",
">X c #AFC0C9",
",X c #BAC3CD",
"<X c #AFC0D1",
"1X c #B9C5D4",
"2X c #B2D6FA",
"3X c #C5C2CD",
"4X c #D9C9C6",
"5X c #C5C8D4",
"6X c #C3CBDB",
"7X c #CBCEDC",
"8X c #CED5D1",
"9X c #CBD1DC",
"0X c #D5D3DD",
"qX c #CAD1E2",
"wX c #D4D5E4",
"eX c #D3D9E5",
"rX c #D7D9E7",
"tX c #DDDDEC",
"yX c #D8E2E1",
"uX c #E3E1ED",
"iX c #E2E3F2",
/* pixels */
"{.{.{.{.{.{.{.{.{.{.{.{.`.(._._.'.{.{.{.{.{.{.{.{.{.{.{.(./.).[.'.'.'.{.{.`._._._.'.'.'.{.{.{.{.{.{.",
"{.{.{.{.{.{.{.{.{.{.{.{.`._._.`.'.{.{.{.{.{.{.{.{.{.{.{.d.d.z.).'.'.{.{.'.`._.`.`.'.'.'.{.{.{.{.{.{.",
"{.{.{.{.{.{.{.{.{.{.{.{.{.{.{.{.{.{.{.{.}.{.{.`.{.'.{.'.T T 2.Y.}.}.{.{.{.{.{.{.'.}.}.'.}.'.'.'.{.{.",
"{.{.{.{.{.{.{.{.{.{.{.{.{.{.{.{.{.{.{.{.Y.j.2.].@XY.s.2.m.m.6.2.8.).{.{.{.{.{.{.'.'.'.'.'.'.}.%X$X$X",
"{.{.{.{.{.{.{.{.{.{.{.{.{.{.{.{.{.{.`.`.z.d.R x. Xx.7.>.C.N.n.>.2.).{.{.{.{.{.{.'.'.'.'.'.'.}.%X%X%X",
"{.{.{.{.{.{.{.{.{.{.{.{.{.{.{.{.{.{.`.W.d.a.G y.D.k.2.&.=X;XN.U U /.).{.{.{.{.{.}.'.'.'.'.'.'.%X%X%X",
"{.{.{.{.{.{.{.{.{.{.{.{.{.{._._._.'.R.S ~ 3.;XV.0.V.*X6XtX6XN.J L /.).{.{.{.{.).'._.'.'.}.'.}.OX|.|.",
"{.{.{.{.{.{.{.{.{.}.}.{.{.{.(._._.'.j.C E e.uX&X9.V.1XiXwX:XC.Y U /.[.}.{.{.{.^.`.^.'.'.'.'.'.'.{.'.",
"{.{.{.{.'.}.'.|.%X$X$X'.{.{.{.`.(._.h.L >.,.rX1X:X<X9X0Xq.6.3.8.l.@X%X$X{.{.{.{.`.^.^.^.'.'.'.'.{.'.",
"{.{.{.{.'.|.{.{.|.OX|.{.{.{.{.`._./.h.L :.6.wXqXqX1X1X,X>.! | j.^.}.|.|.{.{.{.{.'.'.'.'.'.^.^.^.'.'.",
"'.`.'.{.'.'.'.'.{.{.{.{.{.{.'.`.(.Q.g.P :.,.9XrXuXqX1X=XY P | E.{.{.{.{.{.{.{.{.'.'.{.{.'.^.R.R.^.{.",
"_.(.(.'.'.'.}.'.{.{.{.{.{.{.'./.j.l t r P ,.8X9XwXM.Y t j.(.}.`.{.{.{.{.{.{.{.{.'.'.'.'.'.!.R.R.^.{.",
"(.(.!._.`.'.'.'.{.{.'.).Y.g.@.@.O.K F p M A t.u.M.~ H q  .g.Y.[.'.'.'.{.'.|.OX{.'.'.'.}.}.'.^.^.'.{.",
"(.~.R.(._.'.}.'.{.{.'.Y.8.2.S E E ( ) a a p n M K M p < P 2.s.(.'.'.{.{.{.OX%X{.'.'.'.'.'.'.'.'.{.{.",
"'.`._._._.'.'.'.{.R.U.8.| Y H M K ) ) a 5 4 r e d r 4 3 J -.7.g.Y.).'.'.{.{.}.{.'.}.'.'.'.'.}.'.{.{.",
"'.`._._.`.'.'.'.'.U...| 6.n.e.,.E B a 7 i p -.U U g w @ ,.t.7.| ..^.^.'.{.{.{.'.}.'.'.|.|.|.|.'.{.{.",
"{.{.{.{.{.'.'.'._.| V J m.0X3X;XM.< o   y U 2Xw.w.c s = S.S.M.l m U./.`.{.{.{.{.{.{.{.|.%X%X$X'.{.{.",
"{.{.{.{.{.'.!.T.R 7.B.:X6XrXwX7X3Xu.e.Q >.,.! l t h ! t.0X7X,XC.Z.8X].Z.8.T.{.{.{.{.{.}.%X%X$X'.{.'.",
"{.'.'.{.{.{.Y.z.G 7.S.6XwXtXwXwX7X3X;XA.t.,.n r & H t.-XuXrXwX5X1XyX>XZ.1.l.).).{.{.{.}.$X#X+X{.{.{.",
"{.`.^.'.{.{.Y.p.j n.;XiXtXtXtXtXtXiXtX7XA.t.M i 2 ,.F.tXiXiXiXtXtXeX<X&X0.7.l././.{.{.{.{.{.{.{.{.{.",
"{.'.`.{.{.{.T.p.t 6.D.eXwXwXtXtXiXiXiXtX7X3XS.A.A.;X6XwXiXiXtXrXqX*X=X:X1Xm.R s.T.'.{.{.{.{.{.{.{.{.",
"{.{.{.{.{.{.Y.p.g 6.Z.6X7X7XtXtXiXiXiXiXiXiXtXuXtXtXrXwXtXtXtXrXqXV.*X<XrXm.x 4.g.'.{.{.{.{.{.{.{.{.",
"{.{.{.{.{.{.).^.j.r.o.e.u.Z.qXrXiXrXrXiXiXtXwXtXtXtXtXtXiXiXiXiXtX1X&Xm.-.3.l.Y./.'.'.'.{.{.{.{.{.{.",
"{.{.{.{.{.{.'.)./.c.` ` t.C.7X0XrX3X3XwXwXrX7XwXtXiXiXtXiXiXtXrXwX6XS.m.-.4.z.Y./.}.'.'.{.{.{.{.{.{.",
"{.{.{.{.{.{.{.{.'.%.' / r.B.8X0X0X;XS.qXeX0X3X7XtXiXtXtXiXtXrXqX6X6X*Xm.-.4.z./.).{.{.{.{.{.{.{.{.{.",
"{.{.{.{.{.{.{.{.'.%.' ' G.oXXXL.i.r d B.D.P.H.4XuXtXwX0X6X=XV.9.9.>X1X6XwXq.k 3.g.{.{.{.{.{.{.{.{.{.",
"{.{.{.{.{.{.{.{.'.%.' ] G.oXoXI.H.G x S.].4XJ.4XuX5X-XM.>X>X*Xq.q.*X*X*X*Xq.R s.T.'.{.{.{.{.{.{.{.{.",
"{.{.{.{.{.{.{.{.`.%.+.] H.oXoXXXP.-.-.:X7X4XL.4XuXF.e.i S.<X1X=X*XC.q.5.;.7.x.Q.^.'.{.{.{.{.'.'.{.{.",
"{.{.{.{.{.{.{.{.}.v.%.+.G.J.oXXX.X7.q.-X4X.XK.b.D.Q v X ,.u.S.,X=X5.5.2.2.l.`.'.{.{.{.{.{.{.}.$X$X%X",
"{.{.{.{.{.{.{.{.}.W.v.%.+.+.I.I.XXb.A.P..XL.J.i.~ v 2 = M Q u.,X=X;.2.2.8.T.{.{.{.{.{.{.{.{.}.%X%X%X",
"{.{.{.{.{.{.{.{.'.'.}.v.+.^ J.I.oXI.XXK.K.K.H./ : = = ; = ; K F.=XG ! 8.'.'.{.{.{.{.{.{.{.{.}.%X%X%X",
"{.{.{.{.{.{.{.{.}.`.}._.W.v.+.' ' ' ` ` _ / / 9 X X = ; = ; h >.6.8.U.~.'.'.{._.).).{.{.{.{.{.}.}.}.",
"{.{.{.{.'.}.'.'.OX}.|.'.'.'.X./ B B N B N N N : X X = ; ; ; d l T Y.(.[.{.{.{.'.^.^.'.'.'.'.'.'.'.'.",
"{.{.{.{.'.'.'.}.%X%X%X{.'.'.#.X.A v 6 6 6 6 5 @ X X O = = ; 1 s l [.@X%X{.{.{.{.`._._._.'.'.'.'.'.'.",
"{.{.{.{.'.'.'.}.OXOXOX'.'.'.R.$. .2 < 5 5 4 @ + O . . X ; ; ; - 8 ~.[.|.'.{.'.'.'.'.`.'.'.^.^.^.'.'.",
"'.'.{.{.}.'.'.{.'.'.'.'.'.'.!.U.@.e + $ 4 3 $ + O . . . = ; ; + > f.E.).'.|.'.'.'.'.'.'.'.!.R.R.).{.",
"(.(.(.`.'.'.{.{.{.{.{.{.'.'.S h r # q &.&.J 7 3 $ # + X ; ; > - ; , C } '.'.'.'.{.{.{.{.'.!.R.R.^.{.",
"(.~.~._.'.'.{.{.{.{.{.{.OXOXZ d q q y &.J F 7 u $ # + X ; ; > ; ; ; C { '.}.$X'.{.{.{.{.'.'.^.^.`.{.",
"(.~.R.(._.'.'.{.{.{.{.{.|.+XZ 8 & t k &.J D 7 u y q # X ; ; > ; = = b S '.+X%X'.{.{.{.{.{.'.'.'.{.{.",
"{.`.(.(._.'.'.{.{.{.'.'.'.'.h 8 0 *.=.*.k p 3 i l t 1   = ; > : ; = C { '.'.'.'.{.{.{.{.{.'.'.'.{.{.",
"'.'.).).'.{.{.{.'.'.'./.h.p.8 1 & k &.D D n p D n e %   = = ; ; , 9 { O.'.'.}.'.{.{.'.{.OXOX|.'.{.{.",
"{.'.'.{.{.{.{.{.^.^.^.f.I d * % O 4 u a a F =.D i @ o   = = o X > $.h.W.}.'.'.'.{.{.'.|.$X%X$X'.{.{.",
"{.{.{.{.{.{.{.{.'.'.'.h.P & f f k D n i y y z g w < q 0 % % % % 8 U.^.'.'.'.'.'.{.{.{.|.%X%X$X{.{.{.",
"{.'.'.{.{.{.{.{.'.'.'.f.Z & j z &.&.l r w e j t w e s f = % % & d Y.'.'.'.'.'.'.{.{.{.|.$X+X+X{.{.{.",
"{.'.^.'.{.{.{.{.{.{.}...V O *.<.<.<.*.0 & & & * 0 j z *.* % % q s !.^.{.(.(.(.`.{.{.{.{.{.{.{.{.{.{.",
"{.'.'.{.{.{.{.{.{.{.{.R.f...m 8 * & d }  .f.f.j.j.| T f 1 s m @.U.'.{.{.^.~.R._.'.{.{.{.{.{.{.{.{.{.",
"{.{.'.{.{.{.{.{.{.{.{.^.^.R.9 8 X X 8 $./.'.{.{.'.p.W t t g I Y.{.{.{.{.^.~.R.!.'.'.{.{.{.{.{.{.{.{.",
"{.{.{.{.{.{.{.{.{.{.{.{.).^.} [ S S } R.^.'.{.{.'.U.p.| |  .p.^.{.{.{.{.'.`.^.^.'.'.{.{.{.{.{.{.{.{.",
"{.{.{.{.{.{.{.{.{.{.{.{.'.).Y.U.h.$.R.`.'.'.'.'.}.).!.Y.Y.U.^.'.{.{.{.{.{.{.).[.'.'.{.{.{.{.{.{.{.{.",
"{.{.{.{.{.{.{.{.{.{.{.{.{.{.{.{.'.'.'.'.'.'.'.'.'.'.'.'.'.'.'.'.{.{.{.{.{.{.{.'.{.{.{.{.{.{.{.{.{.{."
};
