/* XPM */
static char *result[] = {
/* columns rows colors chars-per-pixel */
"50 50 222 2 ",
"   c #0B0B0B",
".  c #0F1314",
"X  c #131313",
"o  c #15191D",
"O  c #1C1C1C",
"+  c #20131A",
"@  c #181C26",
"#  c #241B29",
"$  c #291934",
"%  c #1E2227",
"&  c #1A293A",
"*  c #242324",
"=  c #272729",
"-  c #2B2B2B",
";  c #35252A",
":  c #32342E",
">  c #272937",
",  c #392636",
"<  c #263438",
"1  c #353939",
"2  c #461B34",
"3  c #462737",
"4  c #52253B",
"5  c #463C3C",
"6  c #5F3D3F",
"7  c #3C4537",
"8  c #4A4B3E",
"9  c #3D1C43",
"0  c #1E3145",
"q  c #282E48",
"w  c #372A46",
"e  c #283846",
"r  c #383B47",
"t  c #253F54",
"y  c #373B57",
"u  c #4A2A42",
"i  c #5B2B48",
"p  c #47374D",
"a  c #523B50",
"s  c #5A3855",
"d  c #652844",
"f  c #6F3550",
"g  c #344346",
"h  c #2A4557",
"j  c #24445C",
"k  c #344859",
"l  c #3D5357",
"z  c #2A4B64",
"x  c #374B68",
"c  c #29526B",
"v  c #395869",
"b  c #2C5A76",
"n  c #375B75",
"m  c #2F627E",
"M  c #3B6577",
"N  c #47454B",
"B  c #4F4F4E",
"V  c #475959",
"C  c #55555B",
"Z  c #654447",
"A  c #6B4D56",
"S  c #795B58",
"D  c #516753",
"F  c #5A6B58",
"G  c #4B4C66",
"H  c #49596A",
"J  c #5B5566",
"K  c #5B5C6B",
"L  c #445B76",
"P  c #6D4F6F",
"I  c #4B6669",
"U  c #506A6C",
"Y  c #587466",
"T  c #49637B",
"R  c #556677",
"E  c #5A7C79",
"W  c #68686C",
"Q  c #657C68",
"!  c #627B76",
"~  c #757075",
"^  c #823053",
"/  c #87555C",
"(  c #86635E",
")  c #97496C",
"_  c #A2406A",
"`  c #8A6762",
"'  c #956966",
"]  c #8E756A",
"[  c #8A7A75",
"{  c #A37F74",
"}  c #65836B",
"|  c #71896A",
" . c #66857B",
".. c #739075",
"X. c #779677",
"o. c #7DA07E",
"O. c #978B74",
"+. c #829C77",
"@. c #9A9878",
"#. c #A88479",
"$. c #A1937A",
"%. c #81A37C",
"&. c #89A979",
"*. c #91A07B",
"=. c #366C89",
"-. c #367798",
";. c #566783",
":. c #527489",
">. c #656F82",
",. c #677A87",
"<. c #777A85",
"1. c #B95784",
"2. c #817D88",
"3. c #C15586",
"4. c #3E8AB1",
"5. c #5B869C",
"6. c #6A8687",
"7. c #758989",
"8. c #789785",
"9. c #759389",
"0. c #788897",
"q. c #6B9291",
"w. c #7C9397",
"e. c #7FA68C",
"r. c #4F8DAF",
"t. c #7696A5",
"y. c #7195AD",
"u. c #7DA0AD",
"i. c #868D8B",
"p. c #8B8D97",
"a. c #83949C",
"s. c #92929C",
"d. c #B19382",
"f. c #B89787",
"g. c #85A88B",
"h. c #9AA683",
"j. c #94B687",
"k. c #95BA8C",
"l. c #9ABD8B",
"z. c #8CAD94",
"x. c #8CB493",
"c. c #95BC92",
"v. c #98BC96",
"b. c #A3AD85",
"n. c #AABB8C",
"m. c #8596A3",
"M. c #8999A9",
"N. c #989AA5",
"B. c #A59BA0",
"V. c #97A4AD",
"C. c #8BA7B4",
"Z. c #8FAAB4",
"A. c #97A8B8",
"S. c #AFA5A6",
"D. c #A7ACB9",
"F. c #A8B0B7",
"G. c #B3B4BE",
"H. c #C59A8D",
"J. c #CBA795",
"K. c #D3B19D",
"L. c #D8B6A3",
"P. c #D3BEB8",
"I. c #E2BDA8",
"U. c #9CC28D",
"Y. c #9CC394",
"T. c #9DC899",
"R. c #A2CE8D",
"E. c #A6C893",
"W. c #A3CC94",
"Q. c #A4CD98",
"!. c #A7D292",
"~. c #AAD395",
"^. c #ACD896",
"/. c #A7D09A",
"(. c #ADD49A",
"). c #AED99B",
"_. c #B0D79B",
"`. c #B2DC9D",
"'. c #B5E09F",
"]. c #A6C8A5",
"[. c #B3D7A8",
"{. c #B1CAB3",
"}. c #B7D6B3",
"|. c #B6E2A0",
" X c #BAE4A5",
".X c #BDE6A9",
"XX c #BFE2B1",
"oX c #DAC3B9",
"OX c #E7C2AD",
"+X c #ECC8B2",
"@X c #F5CDB6",
"#X c #C0E7AC",
"$X c #C2E9AF",
"%X c #C5EAB2",
"&X c #C8ECB5",
"*X c #CAEDB8",
"=X c #9BB3C8",
"-X c #AAB4C8",
";X c #A9B8C8",
":X c #B2B6C2",
">X c #B2BCCB",
",X c #BBBDCB",
"<X c #B8BFD3",
"1X c #B7C4CA",
"2X c #B5C4D2",
"3X c #BEC9D7",
"4X c #C8C6C7",
"5X c #D1D0CE",
"6X c #C6CAD8",
"7X c #CCCEDD",
"8X c #C4D0D7",
"9X c #CBD2DD",
"0X c #E1D8DF",
"qX c #C9CDE0",
"wX c #CDD4E4",
"eX c #D4D4E4",
"rX c #D5D9E7",
"tX c #DCDCEC",
"yX c #E3DAE2",
"uX c #E1E1EF",
"iX c #E3E3F3",
"pX c #E8E8F8",
/* pixels */
"|.|.|.|.|.|.|.|.|.|.|.|.`.(._._.'.|.|.|.|.|.|.|.|.|.|.|.|.|.|.|.|.|.|.|.|.`.(.(._.|.|.|.|.|.|.|.|.|.",
"|.|.|.|.|.|.|.|.|.|.|.|.`._._.`.|.|.|.|.|.|.|.|.|.|.|.|.T.Y.Y.`.|.|.|.|.|.`.).`.`.|.|.|.|.|.|.|.|.|.",
"|.|.|.|.|.|.|.|.|.|.|.|.'.|.|.|.|.'.|.|.|.|.|.|.|.|.|.'.8.6.6.Q.|.|.|.|.|.|.|.|.|.|.|.|.|.|.'.'.|.'.",
"|.|.|.|.|.|.|.|.|.|.|.|.|.|.|.|.|.|.|.|.[.(.x.}.XX/.Y.z.w.0.6.g.c.).'.|.|.|.|.|.|.|.|.|.|.|.|.*X*X*X",
"|.|.|.|.|.|.|.|.|.|.|.|.|.|.|.|.|.|.'.'.`.~.7.v.}.T.z.6.t.m.0.9.e./.).'.|.|.|.|.|.|.|.|.|.|. X*X*X*X",
"|.|.|.|.|.|.|.|.|.|.|.|.|.|.|.'.|.|.'.'.(.l.h 9.Q.c. .x A.-X-X;.T c.(.'.|.|.|.|.|.|.|.'.|.|.|.*X*X*X",
"|.|.|.|.|.|.|.|.|.|.|.|.|.|._._.`.'.!.X.| W D.C.t.M.=X-XqX<X-XT T c./.|.|.|.|.)._._.'.'.|.|.|..X X.X",
"|.|.|.|.|.|.|.|. X X|.|.|.|._._._.'.E.Q F W 7XC.y.u.-XeXeX6X-XR I c.(.|.|.|.|.)._.(.'.'.|.|.|.|.'.'.",
"|.|.|.|.|.|.|.|.*X*X&X'.|.|.|.`.(._.j.Q V K tX<X=X=X2XtX-XD.V.6.9.].XX&X|.|.|.|.`.^.^.).|.|.|.|.'.'.",
"|.|.|.|.|.|.|.|.#X#X.X'.|.|.|.'.`.`.U.E H R eXqX6X2X8X9X0.,.! z.Y.`. X.X|.|.|.|.'.`.'.).|.^.^.^.'.'.",
"'.`.'.|.|.|.|.|.|.|.'.|.|.|.'.'.'.'.T. .H R eXeXtXrX9X8X>.H I Y.|.|.|.|.|.|.|.|.'.'.|.|.|.!.R.R.^.'.",
"_.(.(.'.|.|.|.|.|.|.|.|.|.|.|.`./.I G g g J 6X5XwX-X<.x g.c.W.`.|.|.|.|.|.|.|.|.|.|.|.|.|.!.R.R.'.'.",
"(.~.!._.`.'.|.|.|.|.|.).(.Q.E.j.j.K G a a C V.D.D.N.~ r ..g.Y._.|.|.|.|.|..X.X|.|.|.|.|.|.).^.^.'.'.",
"_.~.R.~._.'.|.|.|.|.|.).v.z.%.+.+.P P s a Z 7.i.p.<.J w ! 8.c.`.|.|.|.|.|..X*X|.|.|.|.|.|.|.|.|.'.'.",
"'.`._._._.|.|.|.|.'.'.W.6.z r 1 5 1.3._ ^ d . % = , , 2 G H E Q.'.'.|.|.|. X X|.|.|.|.|.|.|.|.|.'.'.",
"'.`._.`.`.|.|.|.'.W.l.g.7.>.R K J ) _ f d i g g h r , 2 K >.,.8.k./.).'.|.|.|.|.|.|.|.|..X.X.X|.'.'.",
" X'.'.'.|.|.|.|._.X.! I a.,X:XD.s.p ; + # 1 =Xy.r.=.h * s.N.N.I I j.R.(.'.|.|.|.|.|.|. X*X*X*X|.|.'.",
"'.'.'.'.|.|.|.).8.9.w.m.-XeX7X6X4X~ W C C J y.:.M b K W G.,X,Xa.w.[.}.}.x.T.'.|.|.|.|. X*X*X&X|.|. X",
"'.'.[.'.|.|.|.). .7.m.D.6XrXeX7X6XS.s.i.<.<.K k t k >.N.6X7XqX-XF.8X3X{.q.x./.|.|.|.|. XXX*XXX|.|.|.",
"'.'./.|.|.|.|.Q.z 0.D.pXiXuXuXtXtXyXtX7X:XN.# X   1 p.uXiXpXpXyXuXpXwX2X=.e.T.|.|.|.|.|.|.|.|.|.|.|.",
"'.'.'.'.|.|.|.Q.t ,.V.rXeXrXtXyXuXiXiXtXeX,XN.s.s.N.,XrXuXuXuXtX7X2X;X=X;XM.6.g.Y.'.|.|.|.|.|.|.|.|.",
"'.'. X'.|.|.|.Q.h ,.N.8X9XwXeXtXiXiXpXiXiXiXuXuXiXyXrXeXtXtXuXeX6X=X=X=XtXC.;. .e.'.|.|.|.|.|.|.|.|.",
"|.|.'. X|.|.|.(...8.i.B.F.;XwXrXiXtXtXiXuXuXrXtXtXtXtXtXuXiXiXtXrX<X-X=XM.w.9.g.Y.|.|.|.|.|.|.|.|.|.",
"|.'. X'.|.|.|.`.Y.h.O.[ a.C.3XwXiXrXtXtXiXiXeXrXtXiXtXtXiXiXiXiXyX6X>XA.;.0.z.T.Q.|.|.|.|.|.|.|.|.|.",
"|.|.|.|.|.|.|.|. X*.$.S O.t.2XwXpXrXrXyXuXuXeXrXtXiXtXtXpXpXpXpXpXrX2XA.h  .Q. X|.|.|.|.|.|.|.|.|.|.",
"|.|.|.|.|.|.|.|. Xn.$.' f.+X+XOXK.N e w.F.,XJ.P.0XiXtX7X6X<X-X5.5.=X1X8XrXM.L  .e.|.|.|.|.|.|.|.|.|.",
"|.|.|.|.|.|.|.|.'.*.O.' H.+X@XOXL.G k m.G.4XJ.oX0XeX6X:X,X>X;Xy.y.Z.;X1X<XM.;.9.k.'.|.|.|.|.|.|.'.|.",
"|.|.|.|.|.|.|.|..X@.O.' H.+X@XOXL.U L A.1X5XK.oXyX6XD.W F.>X2XC.C.A.A.A.M.w.9.x.T.'.|.|.|.|.|.|.|.|.",
"|.|.|.|.|.|.|.|.|.b.$.{ H.@X@X+XoX5.:.=X9XyXL.5XyX:X<.o s.G.6X3X;XC.q.5.M q.Q.'.'.'.'.'.|.|. X&X&X&X",
"|.|.|.|.|.|.|.|.|.E.$.$.H.J.I.OX+XV.a.1XoX5XK.J.S.~ C X W p.G.1X1Xt.q.:. .e.^.'.'.'.'.'.|.|. X&X*X*X",
"|.|.|.|.|.|.|.|.'. X`._.@.( H.I.@X@XL.L.K.K.J.] 5 * * - * - N G.>XR I  .|.|.'. X'.'. X'.|.|. X*X*X*X",
"|.|.|.|.|.|.|.|.'.'.'.`.n.$.d.d.d.#.#.#.#.#.] A : O * - = - 1 0.C.q.8.e.|.|.'.^.).'.'.|.|.|.|. X.X X",
"|.|.|.|.'. X'.'. X X X'.^.R.$.O.] ` ` ` ( ( / 8 ; O * ; - - 1 R q.z.z.Y.|.|.|.'.^.^.`.'.'.'.'.'.'.'.",
"|.|.|.|. X'.|. X*X*X*X|.'.'.@.` S Z Z Z Z 6 8 3 + O O - - - < k M ].}.%X|.|.|.|.`.^._._.'.'.'.'.'.'.",
"|.'.|.|.'. X'. X#X#X#X|.'.'.R.*.@.V p u u u 4 2 * o O O = - - > g k.)..X|.|.|.|.'.'.`.'.'.^.'.^.'.'.",
"'.'.'.|.'.'.'.'.|.|.'.|.'.'.`.^.U.U g 9 9 2 4 , * @ X X = = - # - &.U.).|.|.|.|.'.'.'.'.'.!.R.R.). X",
"^.^._.'.'.'.'.'.|.|.|.|.'.'.&.| Y ~ ~ A s i L y q # + o = = - - = 8 F | '.'.|.|.|.|.|.|.'.R.R.R.^.'.",
").^.!._.'.'. X'.'.|.|.|.#X#XX.Y B [ ] A f i =.x q $ # X = = - - - : D F '.'.#X|.|.|.|.|.'.'.^.^.'.|.",
").~.R.~._.'.'.'.|.|.|.|..X%X} V e [ 2./ f s -.=.y $ + @ - - - - - * 7 7 '.#X*X|.|.|.|.|.'.'.'.'.|.|.",
"'.`._.(._.'.'.'.|.|.|.'.'.'.} V q h x p u u n =.-.=.t . = = : - - * 7 8 '.|.|.|.|.|.|.|.|.'.'.'.|.|.",
"'.'.'.'.'.|.|.'.'.'.'.`.W.j.Y v j j j g r p G n =.v e X * * - - * 8 D F '.#X'.'.|.|.|. X#X.X X'.|.|.",
"'.'.'.|.'.|.|.'.^.^.(.^.o.Y M M b j j h x G s s a r >   O * = * - | | +.'.'.'.'.|.|.'. X*X*X*X|.|.|.",
"'.'.|.|.'.'.|.|.|.|.'.W.} 0 b =.-.j t c b v d 4 4 , # X O O * % : &.R.`.'.'.'.'.|.|.|.#X*X*X*X'.|.|.",
"'.'.'.'.|.|.|.|.|.|.|.Y.Y & b =.4.b j c c k u 4 2 , < & % % % % : &.~.'.'.'.'.'.|.|.|. X%X%X$X|.|.|.",
"'.'.^.'.|.|.|.|.'.'.'.R.F o m -.4.4.4.t 0 @ & & q t c =.< & % 0 g j./.'._.~._.`.|.|.|.|.|.|.|.|.|.|.",
"'.'.'.'.'. X|.|.'.'.'.R.o.} I l j h g D } | ...... .T c e 0 g } e.!.`.'.^.~.R._.'.|.|.|.|.|.|.|.|.|.",
"'. X'.'. X'.'.'.'.'.'.R.j.&.Y l & & 7 } X.j.k.k.k.o. .j e g l o.U.).'.|._.~.R.^.'.'.|.|.|.|.|.|.|.|.",
" X'.'.'.'. X'.'.'.'.'.'.^.R.} D 7 7 D &.!.|.'.'.'.Y.o.V I I } T.|.|.|.|.'.`.^.^.^.'.|.|.|.|.|.|.|.|.",
"'.|.|.|.|.'.|.|.|.|.|.|.'.'.U.&.&.&.&.^.'.'.'.'.|.'.R.&.k.j.U.^.|.|.|.|.|.[.`.'.'.'.'.'.'.|.|.|.|.|.",
"|.|.|.|.|.|.|.|.|.|.|.|.'.'. X'.'. X|.|.'.'.|.|.|.|.'.'.'.'.'.'.|.|.|.|.|.|.'.'.'.'.'.'.|.|.|.|.|.|."
};
