/* XPM */
static char *result[] = {
/* columns rows colors chars-per-pixel */
"50 50 113 2 ",
"   c black",
".  c #2C3526",
"X  c #2D3728",
"o  c #2D3828",
"O  c #420000",
"+  c #430000",
"@  c #4F0000",
"#  c #500000",
"$  c #780000",
"%  c #7E0000",
"&  c #553828",
"*  c #563A2A",
"=  c #623F2D",
"-  c #384632",
";  c #394732",
":  c #3A4733",
">  c #3D4938",
",  c #43533B",
"<  c #44543C",
"1  c #44553C",
"2  c #45553D",
"3  c #61402D",
"4  c #494C47",
"5  c #4C4C4C",
"6  c gray31",
"7  c #505050",
"8  c #575C54",
"9  c #5D6858",
"0  c #606060",
"q  c #6C6E6A",
"w  c #6B7765",
"e  c #840000",
"r  c #850000",
"t  c #990000",
"y  c #A00000",
"u  c #BA0000",
"i  c #D50000",
"p  c #8B7777",
"a  c #718D64",
"s  c #728D64",
"d  c #7D9B6E",
"f  c #7E9B6E",
"g  c #7E9473",
"h  c #849F76",
"j  c #83A273",
"k  c #86A078",
"l  c #8BA37E",
"z  c #8AA37F",
"x  c #88A978",
"c  c #89A978",
"v  c #88AA78",
"b  c #808080",
"n  c gray56",
"m  c #909090",
"M  c #979797",
"N  c #989898",
"B  c #9F9F9F",
"V  c #A0A0A0",
"C  c #AFAFAF",
"Z  c gray69",
"A  c gray70",
"S  c #B7B7B7",
"D  c #A2CE8C",
"F  c #A3CF8D",
"G  c #A5CF8F",
"H  c #A5CD91",
"J  c #A7D391",
"K  c #A8D192",
"L  c #A9D294",
"P  c #AAD294",
"I  c #ACD397",
"U  c #AAD694",
"Y  c #ACD896",
"T  c #AED499",
"R  c #AED699",
"E  c #AFD59A",
"W  c #AEDA98",
"Q  c #AEDB98",
"!  c #B0D79B",
"~  c #B0D99B",
"^  c #B1D99B",
"/  c #B1DD9B",
"(  c #B2DB9C",
")  c #B2DB9D",
"_  c #B3DC9D",
"`  c #B3DD9D",
"'  c #B2DE9C",
"]  c #B4DE9E",
"[  c #B4DF9E",
"{  c #B5DF9F",
"}  c #B5E09F",
"|  c #B5E19F",
" . c #B7D6A7",
".. c #B5E1A0",
"X. c #B6E2A0",
"o. c #B7E3A1",
"O. c #B8E3A3",
"+. c #B9E4A4",
"@. c #BBE4A6",
"#. c #BBE5A6",
"$. c #BCE5A8",
"%. c #BCE6A8",
"&. c #BEE6A9",
"*. c #C2E9AF",
"=. c #C5EAB2",
"-. c #C8EBB5",
";. c #C8ECB5",
":. c #CAEDB8",
">. c #DFDFDF",
",. c #E3F4DB",
"<. c gray97",
"1. c #FBFBFB",
"2. c white",
/* pixels */
"X.X.X.X.X.X.X.X.X.X.X.X.( T T ^ X.X.X.X.X.X.X.X.X.X.X.X.X.X.X.X.X.X.X.X.X.( T T ^ X.X.X.X.X.X.X.X.X.",
"X.X.X.X.X.X.X.X.X.X.X.X.` ^ ^ ` X.X.X.X.X.X.X.X.X.X.X.X.X.X.X.X.X.X.X.X.X.` ^ ^ ` X.X.X.X.X.X.X.X.X.",
"X.X.X.X.X.X.X.X.X.X.X.X.X.X.X.X.X.X.X.X.X.X.X.X.X.X.X.X.X.X.X.X.X.X.X.X.X.X.X.X.X.X.X.X.X.X.X.X.X.X.",
"X.X.X.X.X.X.X.X.X.X.X.X.X.X.X.X.X.X.X.X.X.O.-.-.-.X.X.X.X.X.X.X.X.X.X.X.X.X.X.X.X.X.X.X.X.X.O.-.-.-.",
"X.X.X.X.X.X.X.X.X.X.X.X.X.X.X.X.X.X.X.X.X.O.:.:.:.X.X.X.X.X.X.X.X.X.X.X.X.X.X.X.X.X.X.X.X.X.O.:.:.:.",
"X.X.X.X.X.X.X.X.X.X.X.X.X.X.X.X.X.X.X.X.X.O.:.:.:.X.X.X.X.X.X.X.X.X.X.X.X.X.X.X.X.X.X.X.X.X.O.:.:.:.",
"X.X.X.X.X.X.X.X.X.X.X.X.X.X.! ! ! } X.c - : > > > - - - - - j X.X.X.X.X.X.X.X.! ! ! } X.X.X.o.#.#.#.",
"X.X.X.X.X.X.X.X.O.O.O.X.X.X.E E T [ | a                     s X.o.O.O.O.X.X.X.E E T [ | X.X.X.X.X.X.",
"X.X.X.X.X.X.X.O.:.:.;.X.X.X.X._ T T ! a                     s X.@.:.:.;.X.X.X.X._ T T ! X.X.X.X.X.X.",
"X.X.X.X.X.X.X.o.&.&.%.X.X.X.1         # i i i i i i i i i i @         2 X.X.X.X.} _ _ ` X.Y U U / X.",
"} } } X.X.X.X.X.X.X.X.X.X.X.1         # i i i i i i i i i i @         < X.X.X.X.X.X.X.X.X.J D D Q X.",
"T T T } X.X.X.X.X.X.X.H d d & + + + + % i i i i i i i i i i $ + + + + = d d H X.X.X.X.X.X.J D D Q X.",
"T I K ~ ` X.X.X.X.X.X.f     r i i i i i i i i i i i i i i i i i i i i r     h X.X.X.X.X.X.W Y Y ' X.",
"T P D I ! X.X.X.X.X.X.f     r i i i i i i i i i i i i i i i i i i i i r     l X.X.X.X.X.X.X.X.X.X.X.",
"X._ T T ! X.X.X.X.< < 3 r r u i i i i i i i i i i i i i i i i i i i i u r r * < < X.X.X.X.X.X.X.X.X.",
"X.] ^ ^ ( X.X...`     O i i i i i i i i i i i i i i i i i i i i i i i i i i +     X.X.O.&.&.$.X.X.X.",
"X.X.X.X.X.X.X.} T     O i i i i i i i i i i i i i i i i i i i i i i i i i i +     X.X.@.:.:.;.X.X.X.",
"X.X.X.X.X.X.X.X.}     O i i i i i i i i i i i i i i i i i i i i i i i i i i +     X.X.@.:.:.;.X.X.X.",
"X.| [ | X.X.X.X.X.    O i i i i i i i i i i i i i i i i i i i i i i i i i i +     X.X.+.=.=.*.X.X.X.",
"X._ T } X.X.j a a # # $ i i i i i i i i i i t e e e e y i i i i i i i i i i % # # a a v X.X.X.X.X.X.",
"X.} ] X.X.X.;     i i i i i i i i i i i i i +         O i i i i i i i i i i i i i     o X.X.X.X.X.X.",
"X.X.X.X.X.X.;     i i i i i i i i i i i i i +         O i i i i i i i i i i i i i     o X.X.X.X.X.X.",
"X.X.X.X.X.X.;     i i i i i i i i i i y O O p C C C C p O O t i i i i i i i i i i     o X.X.X.X.X.X.",
"X.X.X.X.X.X.;     i i i i i i i i i i r     C 2.2.2.2.Z     r i i i i i i i i i i     o X.X.X.X.X.X.",
"X.X.X.X.X.X.;     i i i i i i i i i i r     C 2.2.2.2.Z     r i i i i i i i i i i     o X.X.X.X.X.X.",
"X.X.X.X.X.X.;                               C 2.2.2.2.C                               o X.X.X.X.X.X.",
"X.X.X.X.X.X.;                               C 2.2.2.2.C                               o X.X.X.X.X.X.",
"X.X.X.X.X.X.;     7 7 7 7 7 7 7 7 7 7 7 7 7 m C C C C m 7 7 7 7 7 5 7 7 7 7 5 7 4     o X.X.X.X.X.X.",
"X.X.X.X.X.X.;     2.2.2.2.2.2.2.2.2.2.2.2.2.6         7 2.2.2.2.<.<.2.2.2.2.<.2.,.    o X.X.O.-.-.-.",
"X.X.X.X.X.X.;     2.2.2.2.2.2.2.2.2.2.2.2.2.6         7 2.2.2.2.<.<.2.2.2.2.<.2.,.    o X.X.O.:.:.:.",
"X.X.X.X.X.X.x a a 0 0 M 2.2.2.2.1.1.2.2.2.2.S B B B B A 2.2.2.2.<.<.2.2.2.2.n 0 8 a a d X.X.O.:.:.:.",
"X.X.X.X.X.X.X.X.X.    7 2.2.2.2.<.<.2.2.2.2.<.2.2.2.2.<.2.2.2.2.<.<.2.2.2.2.6     ! } X.X.X.o.#.#.#.",
"X.X.X.X.X.X.X.X.@.    7 2.2.2.2.<.<.2.2.2.2.<.2.2.2.2.<.2.2.2.2.<.<.2.2.2.2.6     T [ | X.X.X.X.X.X.",
"X.X.X.X.X.X.X.O.:.    7 2.2.2.2.2.2.2.2.2.2.<.2.2.2.2.<.2.2.2.2.<.<.2.2.2.2.6     T T ! X.X.X.X.X.X.",
"X.X.X.X.X.X.X.o.&.    7 2.2.2.2.2.2.2.2.2.2.<.2.2.2.2.<.2.2.2.2.<.<.2.2.2.2.6     _ _ ` X.Y U U / X.",
"} } } X.X.X.X.X.X.< < 9 B B >.2.1.1.2.2.2.2.1.2.2.2.2.<.2.2.2.2.<.<.2.>.B B w < < X.X.X.X.J D D Q X.",
"T T T } X.X.X.X.X.X.X.f     V 2.<.<.2.2.2.2.2.2.2.2.2.2.2.2.2.2.<.<.2.B     d X.X.X.X.X.X.J D D Q X.",
"T I K ~ ` X.X.X.X.X.X.f     V 2.<.<.2.2.2.2.2.2.2.2.2.2.2.2.2.2.<.<.2.B     h X.X.X.X.X.X.W Y Y ' X.",
"T P D I ! X.X.X.X.X.X.H h z b 7 5 7 7 m 2.2.<.2.2.2.2.2.2.2.N 7 5 7 7 q d h  .X.X.X.X.X.X.X.X.X.X.X.",
"X._ T T ! X.X.X.X.X.X.X.X.X.1         0 2.2.<.2.2.2.2.2.2.2.0         < X.X.X.X.X.X.X.X.X.X.X.X.X.X.",
"X.] ^ ^ ( X.X...` ` ` X.X.X.1         0 2.2.<.2.2.2.2.2.2.2.0         , X.X.X.X.X.X.X.O.&.&.$.X.X.X.",
"X.X.X.X.X.X.X.} T T T X.X.X.X.X.X.X.@.g                     s X.} T T T X.X.X.X.X.X.X.@.:.:.;.X.X.X.",
"X.X.X.X.X.X.X.X.} } } X.X.X.X.X.X.X.@.g                     s X.X.} } } X.X.X.X.X.X.X.@.:.:.;.X.X.X.",
"X.| [ | X.X.X.X.X.X.X.[ [ [ | X.X.X.+.k o o o o o o X . X o x X.X.X.X.X.[ [ [ | X.X.X.+.=.=.*.X.X.X.",
"X._ T } X.X.X.X.X.X.X.T T T } X.X.X.X.X.X.X.X.X.X.X._ T } X.X.X.X.X.X.X.T T T } X.X.X.X.X.X.X.X.X.X.",
"X.} ] X.X.X.X.X.X.X.X.T P G R ) X.X.X.X.X.X.X.X.X.X.} ] X.X.X.X.X.X.X.X.T P G R ) X.X.X.X.X.X.X.X.X.",
"X.X.X.X.X.X.X.X.X.X.X.E L F I ^ X.X.X.X.X.X.X.X.X.X.X.X.X.X.X.X.X.X.X.X.E L F I ^ X.X.X.X.X.X.X.X.X.",
"X.X.X.X.X.X.X.X.X.X.X.X.( T T ^ X.X.X.X.X.X.X.X.X.X.X.X.X.X.X.X.X.X.X.X.X.( T T ^ X.X.X.X.X.X.X.X.X.",
"X.X.X.X.X.X.X.X.X.X.X.X.{ _ _ ] X.X.X.X.X.X.X.X.X.X.X.X.X.X.X.X.X.X.X.X.X.{ _ _ ] X.X.X.X.X.X.X.X.X.",
"X.X.X.X.X.X.X.X.X.X.X.X.X.X.X.X.X.X.X.X.X.X.X.X.X.X.X.X.X.X.X.X.X.X.X.X.X.X.X.X.X.X.X.X.X.X.X.X.X.X."
};
