/* XPM */
static char *result[] = {
/* columns rows colors chars-per-pixel */
"50 50 221 2 ",
"   c black",
".  c #131313",
"X  c #17171C",
"o  c #1B1C1C",
"O  c #21251F",
"+  c #1A1A25",
"@  c #251723",
"#  c #391E2C",
"$  c #2A1132",
"%  c #1B2329",
"&  c #192735",
"*  c #242424",
"=  c #242728",
"-  c #2B2B2B",
";  c #37242C",
":  c #2F312E",
">  c #242C37",
",  c #2B3439",
"<  c #323233",
"1  c #353B32",
"2  c #35373A",
"3  c #501C37",
"4  c #472437",
"5  c #53273B",
"6  c #4C3337",
"7  c #374137",
"8  c #1E3145",
"9  c #312E49",
"0  c #253748",
"q  c #353A47",
"w  c #223D53",
"e  c #471A40",
"r  c #5D1F41",
"t  c #542941",
"y  c #493548",
"u  c #4D304E",
"i  c #483954",
"p  c #6B2644",
"a  c #6E364F",
"s  c #2A414A",
"d  c #3A4247",
"f  c #3D534F",
"g  c #284659",
"h  c #384A55",
"j  c #39525B",
"k  c #284A63",
"l  c #364963",
"z  c #2C576E",
"x  c #365467",
"c  c #2C5A74",
"v  c #395A74",
"b  c #356376",
"n  c #48484D",
"m  c #4A5844",
"M  c #48475A",
"N  c #5A4853",
"B  c #4A595D",
"V  c #55545B",
"C  c #6A4646",
"Z  c #6A4747",
"A  c #644857",
"S  c #795653",
"D  c #53644D",
"F  c #4B635B",
"G  c #566A57",
"H  c #6A6C5D",
"J  c #494A68",
"K  c #455664",
"L  c #44546A",
"P  c #5C5C62",
"I  c #4F5876",
"U  c #734B62",
"Y  c #496868",
"T  c #576966",
"R  c #5C646B",
"E  c #587365",
"W  c #4A6974",
"Q  c #556877",
"!  c #54717A",
"~  c #5B7678",
"^  c #657B6B",
"/  c #676B74",
"(  c #627A78",
")  c #77777A",
"_  c #8A3C5D",
"`  c #865A5A",
"'  c #83675F",
"]  c #9A4168",
"[  c #A2486F",
"{  c #84716C",
"}  c #96786C",
"|  c #9D7D72",
" . c #A47C74",
".. c #69876B",
"X. c #738D6B",
"o. c #79956B",
"O. c #698775",
"+. c #728E76",
"@. c #769576",
"#. c #7FA07F",
"$. c #948C74",
"%. c #9A9A7A",
"&. c #A8847A",
"*. c #A2977D",
"=. c #83A579",
"-. c #98A67E",
";. c #8FB07F",
":. c #2E6884",
">. c #376887",
",. c #377698",
"<. c #5A6C86",
"1. c #597786",
"2. c #677885",
"3. c #7A7A81",
"4. c #667891",
"5. c #3D86AB",
"6. c #3F8EB5",
"7. c #5C8687",
"8. c #598297",
"9. c #6A8885",
"0. c #76888B",
"q. c #749482",
"w. c #789788",
"e. c #6B8C97",
"r. c #798A99",
"t. c #7B9497",
"y. c #7BA283",
"u. c #7EAB94",
"i. c #5983A1",
"p. c #688CA3",
"a. c #7A98A8",
"s. c #799BB1",
"d. c #7EA0B4",
"f. c #8B8889",
"g. c #878D96",
"h. c #85939D",
"j. c #B69687",
"k. c #B79288",
"l. c #83A584",
"z. c #87AB8A",
"x. c #8CB087",
"c. c #8DB38B",
"v. c #92B68A",
"b. c #96BA89",
"n. c #8BB194",
"m. c #94BB92",
"M. c #95BA95",
"N. c #A9B48B",
"B. c #8494A2",
"V. c #8999A7",
"C. c #989BA7",
"Z. c #949EB1",
"A. c #8CABA6",
"S. c #87A6B7",
"D. c #97A7B7",
"F. c #9BB3BF",
"G. c #A2A3AC",
"H. c #A9ABB7",
"J. c #A2ABBB",
"K. c #B0B2B9",
"L. c #C8A394",
"P. c #CDAB9A",
"I. c #CDB4A5",
"U. c #D4BAAA",
"Y. c #CBBBB4",
"T. c #D0B9B1",
"R. c #E3BAA6",
"E. c #9BC494",
"W. c #9FC998",
"Q. c #A3CE8D",
"!. c #A7C693",
"~. c #A3CB93",
"^. c #A3CD99",
"/. c #A7D392",
"(. c #AAD395",
"). c #ACD896",
"_. c #A7D19A",
"`. c #ADD499",
"'. c #AED99B",
"]. c #B0D79B",
"[. c #B2DC9D",
"{. c #B5E09F",
"}. c #A9CFA5",
"|. c #B8DBA8",
" X c #AFD0B4",
".X c #B6E2A0",
"XX c #BAE4A5",
"oX c #BDE6A9",
"OX c #DCC2B2",
"+X c #EBCAB7",
"@X c #F5CDB6",
"#X c #C0E7AC",
"$X c #C2E9AF",
"%X c #C4E8B2",
"&X c #C8ECB5",
"*X c #CAEDB8",
"=X c #92AFCD",
"-X c #A8B9C8",
";X c #B3B4C2",
":X c #B4BCC8",
">X c #BCBDCA",
",X c #B0BCD1",
"<X c #B8C3CD",
"1X c #BBC6D5",
"2X c #C9C5C5",
"3X c #DCCAC6",
"4X c #C4C6D4",
"5X c #C5CCD6",
"6X c #C4CBDB",
"7X c #CACCDB",
"8X c #CAD2DC",
"9X c #DBD0D3",
"0X c #E2D4D6",
"qX c #CED2E2",
"wX c #CFD9E1",
"eX c #D4D5E4",
"rX c #D6D9E8",
"tX c #DCDCEC",
"yX c #E1E1EF",
"uX c #E2E3F2",
"iX c #E8E8F8",
/* pixels */
".X.X.X.X.X.X.X.X.X.X.X.X{.).`.[.{..X.X.X.X.X.X.X.X.X.X.X.X.X.X.X.X.X.X.X.X[.`.`.]..X.X.X{.{.{.{.{.{.",
".X.X.X.X.X.X.X.X.X{..X.X{.{.'.'.'.E.W.'..X.X.X.X.X.X.X.X.X.X.X.X.X.X.X.X.X[.[.[.[..X.X.XXX{.{.XX{.{.",
".X.X.X.X.X.X.X.X{.XX{.{.{.{.{.'.W.9.w.^.'..X.XXX.X.X.X.X.X.X.X.X.X.X.X.X.X.X.X.X.X.X.X.X{.{.{.{.XX{.",
".X.X.X.X.X.X.X.X{.oX{.{.{.{.).~.M.Q 1.n.~.|.*XoX|.'.|.{..X.X.X.X.X.X.X.X.X.X.X.X.X.X.X.X{.{.XX*X*X*X",
".X.X.X.X.X.X.X.X{.{.{.XX{.XXm.n.z.4.4.t.M.^.*X}.M.E._.{..X.X.X.X.X.X.X.X.X.X.X{..X.X.X.X.X.X.X*X*X*X",
".X.X.X.X.X.X.X.XXX{.{.{.{.[.! ! <.6X;X<.1.0.*Xq.L ~ z.{..X.X.X.X.X.X.X.X.X.X.X|..X.X.X.X.X.XXX*X*X*X",
".X.X.X.X.X.X.X.X{.{.XX{.XX{.W ! <.6X7X-XV.V.n.a.B.0.+.$./.[..X.X.X.X.X.X.X.X.X'.].]..X.X.X.XXXoXXXoX",
".X.X.X.X.X.X.X.X{.XXXX{.{.{.W ! <.6XeX,X-XS.p.A.J.h.O.G ~.'..X.X.XXX.X.X.X.X.X).`.`.[..X.X.X{.{.{.{.",
".X.X.X.XXX{..XXX*X*X&X.X.X.XO.! Q >XeXuX1X,X4.-XqXG./ < b._.|.{.oX*X*X*X.X.X.X.X[.`.).'.{.{.{.{.{.{.",
".X.X.X.X{.XX.XXXoXoXoX.X.X.Xm.z.w.<.r.>X6X1X,X7XqXZ.2.0 b.`.{.{..XoXoXoX.X.X.X.X{.[.{.{.{.).).).{.{.",
"[.{.{..X{.{.{.{..X.X.X.X.X.X.X/.b.h L D.6XwXyXrXeXZ.2.g m.'.{.{..X.X.X.X.X.X.X.X{..X{.{..X).Q.Q.)..X",
"].`.`.{.{.XX{.{..X.X.X.X.X.X.X{.`.z.q.~ a.S.rXqX7Xh./ 9 T O.l.'..X.X.X.X.X.X.X.X.X.X{.{.{./.Q.Q.{..X",
"`.`.(.].[.{.{.XX.X.X.X.XXX$X{.{.`.m.l.T 2.g.7X4X<Xh.R 0 L ~ q.E.).'.'..X.XoX$X.X.X{..X.X.X'.).).{.{.",
"`.(.Q.(.].{.{.{..X.X{.{.$X*X{.{.].}.v.K R 2.>X;XK.h.R s x W ( v.~.^._.'..XoX*X.X.X.X.X.X.X.X.X.X.X{.",
"{.[.].].].{.{.{..X{.{.{.{..X.X).M.W L t 4 ; < * o s c i.=X=Xa.n q j O.l..X.X.X.X.X.X.X.X.X.X.X.X.X.X",
"{.[.].].[.{.XX{.{.{.{.{..X.XQ.v.l.4.Q y 4 4 ; 4 # q z :.s.a.4.R P Q 2.q.c.~..X.X.X.X{.XXoXoXoX.X.X.X",
"{..X.X.X.X.X.X{.'.'.}..X{.|.+.( ~ J.C.i 4 4 a _ ] U y % h M R g.C.H.B.0.Y =..X.X.X.X.XoX*X*X&X.X.X.X",
".X.X.X{..X.X.X.X{._.^.}.|.%Xq.9.0.,XK./ N a p _ [ a y - n P ) H.>X7XJ.B.Q q.E.'.'..X|.XX*X*X&X.X.X.X",
".X{.{.{..X.X.X.X{.W.M.M. X*XA.V.C.7X4Xg.{ U 3 p _ A A V / f.C.>X7XrX>XD.r.0.w.M.~..X{.XX&X%XoX.X.X.X",
"{.{.`.{..X.X{.{..Xu.8.p.-XiXuXuXyXiXiXuXG.3.  . @ P g.4XrXtXtXrXtXyXuXuXiXV.k @.c.{.{.{..X.X.X.X.X.X",
"{.{.{.{..X.X_.W.9.a.S.-X-X<X1XrXtXyXuXtX>XG./ ) ) G.;X7XtXuXuXtXtXtXtXtXtXB.g O.z..X.X.X.X.X.X.X.X.X",
".X.X.X.X.X.X_.m.! V.-X<X-XF.1XwXeXyXtXtX7X>XK.;X;X4XqXrXuXuXuXuXtXeXwXeXwXt.g +.z..X.X.X.X.X.X.X.X.X",
".X.X.X.X.X.X^.M.! B.F.-X-XS.1XwXtXuXyXrXeXtXuXtXtXuXyXuXuXyXuXuXtX6X1XOX;Xt.F @.v..X.X.X.X.X.X.X.X.X",
".X.X.X.X.X.X[._.M.w.4.r.D.1XrXtXuXuXuXyXtXtXuXtXeXtXuXuXtXtXyXuXrX-XD.C.f.f.#.E./..X.X.X.X.X.X.X.X.X",
".X.X.X.X.X.X.X.X[.q.T <.Z.qXuXiXiXiXuXuXuXyXyXtXeXeXyXiXeXrXtXuXwXS.r.) S %.{.{..X.X.X.X.X.X.X.X.X.X",
".X.X.X.X.X.X_.m.! a.D.;X:X4XS.d.S.1X8XrXrXtXuX9XT.T.2X7X/ / 3.Y.+XU.j.k.` $.`.`.{..X.X.X.X.X.X.X.X.X",
".X.X.X.X.X.X~.m.! r.S.-X,X<Xd.d.s.<X5X>X4X7XiX9XT.Y.2X7XQ P ) U.@XR.L.&.` %.].[.{.{..X.X.X.X.X.X.X.X",
".X.X.X.X.X.X^.m.! r.D.-X-X<Xa.s.s.<X<XH.K.>XiX3XI.T.2X6XL B / I.@X@XP.&.` %..X.X{.{..X.X.X.X.X.X.X.X",
".X.X.X.X.X.X.X|._.y.7.1.e.a.F.,X1X8XH.n V 3.iX3XOXOX0XiXi.8.t.U.@X@XP.k.` -.XX{.{..X.X.X.X.XXX&X&X&X",
".X.X.X.X.X.X{.{.{.m.y.7.7.4.F.:X:XC.f.2 n V H.K.I.OX3X0XV.B.C.+X@XR.L.j.$.N.{.{.{..X.X.X.X.XXX*X*X*X",
".X.X.X.X.X.X{.{.{.[.'.z.~ x J.H.G.n < < : < < H j.P.U.U.I.I.OX+XR.&.*.*.(.[.{.{.{.{..X.X.X.X.X*X*X*X",
".X.X.X.X.X.X{.{.{.|..XE.w.! V.V.B.n = - - = @ C $.j.j.j.j.j.L.P.L.&.*.N.{.[.{.).[.[.{..X.X.X.XoXXXXX",
".X.X.X.XXX{.XX.XXXoXXX).E.@.t.e.2.2 - - = * X 6 ' } | | &. .&.&.&.%.N.!..X.X.X`.].`.{.{.{.{.{.XX.X.X",
".X.X.X.X{.XX{.XX*X*X*X.X{.{.7.W x , - - = O . ; 6 Z Z Z Z Z Z C S |.%X&X.X.X.X.X[.`.`.].{.{.{.{..X.X",
".X.X.X.X{.{.{.{.oXoXoX{.{.{.E f , , - O o o X = 5 t t t y n G $.-.#X#X|..X.X.X.X[.[.[.[.{.).).).{..X",
"{.{.{..X{.{.XX{.{..X.X{.{.).D 7 = - = o X X + ; 4 4 e e q n E b.!.[.{.{..X.X.X.XXX{.{.XX{./.Q.Q.)..X",
"'.'.(.{.{.XX{.XX{.{.[.Q.;.o.m 7 * - - o X X $ 9 i i u r N P ^ @.=.(.[..X.X.X.X.X.X.X.X.X{./.Q.Q.)..X",
"`.(.(.[.[.{.{.{.{.{.[.Q.X.m 7 - - - - o + + $ 9 v J i p { { ) G E (.[..X.XXX#X.X.X.X.X.X{.{.).).{..X",
"`.(.Q.`.].{.{.{.{.XX{.;.D o O O - < - * @ @ $ l ,.I J p &.&.{ d s ~.'..X.X#X*X.X.X.X.X.X{.{.{.{..X.X",
"{.[.`.(.].{.XX{.{.{.{.;.G O - : - - - X & 0 ,.>.b J u 3 J x k 0 s Q.'..X.X.X.X.X.X.X{.XX{.{.{.{..X.X",
"{.{.{.{.{..X{.{.{.[.[.b.H 7 : : - - = X % 0 >.>.v M i t j k g w g c.E./.{.XX{.{..X.X.XXXoX#XoX{..X.X",
"{.{.{..X{.{.XX{.].].].Q.=.D 1 : - - * . * 0 I L J M M i g g g w x @.l.v.{.{.{.{..X.X{.XX*X*X&X.X.X.X",
"{.{.{..X{..X{.XX{.{.{.{.).(.m 1 o * o . X @ 3 t p i L :.w w k 5.,.s E +.{.XX{.{..X.X.XoX*X*X&X.X.X.X",
"{.{.{.{..X.XXX{.{.{.{.{.{.{.D 7 * O % % = ; 4 e t i g c g k c 5.5.8 F X.{.{.{.{..X.X.XXX$X$X$X.X.X.X",
"{.{.).{.{.{.{.{.{.{.{.`.).].T f > % > c c z 8 8 > & % + b 5.5.6.5.& F ..`.`.`.[..X.X.X.X.X.X.X.X.X.X",
"{.{.{.{.{.{.XX{.{.{.XX`.(.Q.+.^ F , > g x b E E T G F F b z c c z F X.#.).(.Q.].{..X.X.X.X.X.X.X.X.X",
"{.XX{.{.{.XXXX{.XX{..X].(.Q.=.+.E s 8 g x W @.+.@.X.+...f g g g g ..#.;.`.(.Q.).{.{..X.X.X.X.X.X.X.X",
".X{.{.{.{.{.{.{.{.{..X.X].`.`.~.c.j 0 0 B ...X.X.X.X.X.X7 O . . O Q.).{.{.[.).).{.{..X.X.X.X.X.X.X.X",
".X.X.X.X.X.X.X.X.X.X.X.X{.{.{.{./.x.=.y.v.E.{.{.{.{.XX{.;.=.o.o.=.).{.{.{.{.{.{.{.{.{.{.XX{..X.X.X.X",
".X.X.X.X.X.X.X.X.X.X.X.X{.{..X{.{.{.{.{.{.{.{.{.{.{.{.{.{.{.{.{.{.{.{.{.XX{.{.{.{.{.{.XX.X.X.X.X.X.X"
};
