/* XPM */
static char *result[] = {
/* columns rows colors chars-per-pixel */
"50 50 226 2 ",
"   c #080808",
".  c #0A161D",
"X  c #131313",
"o  c #16161B",
"O  c #1B1C1C",
"+  c #21251F",
"@  c #181D25",
"#  c #241B27",
"$  c #2A1533",
"%  c #361A36",
"&  c #1C2225",
"*  c #1D242D",
"=  c #182635",
"-  c #232323",
";  c #2B2B2B",
":  c #342329",
">  c #31362E",
",  c #212B33",
"<  c #2C2A35",
"1  c #3B2734",
"2  c #2A3237",
"3  c #333334",
"4  c #3A3538",
"5  c #471A39",
"6  c #492B32",
"7  c #43243A",
"8  c #4A2639",
"9  c #54273B",
"0  c #54333D",
"q  c #60233F",
"w  c #3E4739",
"e  c #4C403B",
"r  c #391340",
"t  c #1B3042",
"y  c #2B2A44",
"u  c #293848",
"i  c #383B41",
"p  c #2F3752",
"a  c #4C1941",
"s  c #472C47",
"d  c #4E2B43",
"f  c #542843",
"g  c #4C3B4F",
"h  c #563649",
"j  c #463A55",
"k  c #662544",
"l  c #6B354E",
"z  c #364547",
"x  c #354A4D",
"c  c #284357",
"v  c #374C55",
"b  c #3C5358",
"n  c #2A4D66",
"m  c #354968",
"M  c #2C526A",
"N  c #37586A",
"B  c #2C5D78",
"V  c #385D7C",
"C  c #2F637C",
"Z  c #366278",
"A  c #47494B",
"S  c #5B4D49",
"D  c #49554A",
"F  c #494557",
"G  c #445757",
"H  c #54565A",
"J  c #6A4646",
"K  c #6B5657",
"L  c #57684F",
"P  c #4A6459",
"I  c #52695B",
"U  c #5F7255",
"Y  c #63775A",
"T  c #474864",
"R  c #465969",
"E  c #55586C",
"W  c #455975",
"Q  c #4C6766",
"!  c #546A63",
"~  c #58756B",
"^  c #4D6A78",
"/  c #556A75",
"(  c #587879",
")  c #696F68",
"_  c #696C72",
"`  c #607D76",
"'  c #647A7A",
"]  c #76767C",
"[  c #8B395C",
"{  c #983D65",
"}  c #855858",
"|  c #80685E",
" . c #904467",
".. c #9D5B6C",
"X. c #68805C",
"o. c #688369",
"O. c #728C68",
"+. c #7C976F",
"@. c #698877",
"#. c #778A7D",
"$. c #75977B",
"%. c #7EA07E",
"&. c #918D73",
"*. c #999477",
"=. c #A98A7B",
"-. c #A1967C",
";. c #89A97B",
":. c #91B37F",
">. c #A1A17F",
",. c #366784",
"<. c #3A7797",
"1. c #446182",
"2. c #556D83",
"3. c #577383",
"4. c #527A95",
"5. c #677785",
"6. c #717889",
"7. c #3980A3",
"8. c #598296",
"9. c #688883",
"0. c #75868B",
"q. c #779A85",
"w. c #678698",
"e. c #768998",
"r. c #729690",
"t. c #7EA386",
"y. c #7FA199",
"u. c #6E8EA6",
"i. c #7B97A9",
"p. c #789DB7",
"a. c #7EA0B5",
"s. c #76A0C0",
"d. c #83838C",
"f. c #8A8D90",
"g. c #849998",
"h. c #92929C",
"j. c #B89586",
"k. c #A29493",
"l. c #84A888",
"z. c #8DB288",
"x. c #95B687",
"c. c #95BC8E",
"v. c #85A996",
"b. c #8CB893",
"n. c #95BB94",
"m. c #8998A7",
"M. c #979BA9",
"N. c #8E9EB3",
"B. c #85A2A5",
"V. c #9FA8AD",
"C. c #88A4BA",
"Z. c #98A7B7",
"A. c #A4A5A9",
"S. c #B2A8A4",
"D. c #A5AAB6",
"F. c #B0B2BD",
"G. c #C39E8E",
"H. c #C7A697",
"J. c #D1A798",
"K. c #C3AEA3",
"L. c #CDB2A5",
"P. c #D8B7A6",
"I. c #C6BBB7",
"U. c #D4BEB4",
"Y. c #E4BEAA",
"T. c #9CC38F",
"R. c #9CC394",
"E. c #9DC89A",
"W. c #A1C78E",
"Q. c #A3CE8D",
"!. c #A3CB93",
"~. c #A8C895",
"^. c #A5CF99",
"/. c #B2C39B",
"(. c #A7D293",
"). c #ABD395",
"_. c #ACD896",
"`. c #A3D09C",
"'. c #ADD499",
"]. c #AED99B",
"[. c #B0D197",
"{. c #B0D69B",
"}. c #B3DC9D",
"|. c #B5E09F",
" X c #9BC5A3",
".X c #B5D8A9",
"XX c #B6E2A0",
"oX c #B9E4A4",
"OX c #BDE6A9",
"+X c #D8C1B5",
"@X c #EEC5AF",
"#X c #EAC6B1",
"$X c #F6CEB7",
"%X c #C0E7AC",
"&X c #C2E9AF",
"*X c #C4E9B3",
"=X c #C8EBB5",
"-X c #CAEDB8",
";X c #99AFC7",
":X c #9DB3C6",
">X c #A7AFC3",
",X c #ABB2C2",
"<X c #A8BBC9",
"1X c #B6B9C7",
"2X c #B7C2CE",
"3X c #BBC6D4",
"4X c #C6C3CB",
"5X c #D9CAC9",
"6X c #C6CBD7",
"7X c #C5CCDB",
"8X c #D6CFD3",
"9X c #C6D0DE",
"0X c #CBD2DC",
"qX c #D5D2DD",
"wX c #E3D1CD",
"eX c #C9CEE0",
"rX c #CDD2E2",
"tX c #CCDAE0",
"yX c #D4D5E4",
"uX c #D5D9E7",
"iX c #DCDCEC",
"pX c #E4DEE7",
"aX c #DCE2EE",
"sX c #E2E2EE",
"dX c #E3E3F2",
"fX c #E8E8F8",
/* pixels */
"XXXXXXXXXXXXXXXXXXXXXXXX}.'.'.{.XXXXXXXXXXXXXXXXXXXXXXXXXXXXXXXXXXXXXXXXXX|._._._.|.|.|.XXXXXXXXXXXX",
"XXXXXXXXXXXXXXXXXXXXXXXX}.{.}.}.XX'.'.].XXXXXXXXXXXXXXXXXXXXXXXXXXXXXXXX|.|.|.|.|.|.XXXXXXXXXXXXXXXX",
"XXXXXXXXXXXXXXXXXXXXXXXXXXXXXXXXXXR.R.^..XXX|.|.XXXXXXXXXXXXXXXXXXXXXXXX|.|.XXXXXXXXXXXXXXXX|.|.XX|.",
"XXXXXXXXXXXXXXXXXXXXXXXXXXXXXX}.^.^ ( v.'.|.-X=X=XXXXXXXXXXXXXXXXXXXXXXX|.|.XXXXXXXXXXXXXXXXXX-X-X-X",
"XXXXXXXXXXXXXXXXXXXXXXXXXXXX^.E.b.2.5.y.n. X-XOX.X!.{.|.XXXXXXXXXXXXXXXX|.|.|.|.XXXXXXXXXXXXoX-X-X-X",
"XXXXXXXXXXXXXXXXXXXXXXXXXXXX9.9.2.1X>X6.3.9.-Xv./ ` z.}.XXXXXXXXXXXXXXXX|.|.|.|.XXXXXXXXXXXXXX-X-X-X",
"XXXXXXXXXXXXXXXX|.XXXXXXXXXX' ( W 1XeXN.e.e. Xy.e.5.q.z.).}.XXXXXXXXXXXXoX|.|.|.}.{.|.XXXXXXXXOXOXXX",
"XXXXXXXXXXXXXXXXoXoXoXXXXXXX( ( W 7XeX>XN.m.y.B.m.0.#.+.!.].XXXXXXoXoXoX|.|.|.|.{._.}.XXXXXXXXXXXXXX",
"XXXXXXXXXXXXXXXX-X-X=XXXXXXX( / W rXsXfXuXeX<.;X3XF.] > ;.W.XXXXOX-X-X=X|.|.XXXX}._._.}.|.|.|.|.XXXX",
"XXXXXXXXXXXXXXXX%XOXOXXXXXXXc.l.0.6.m.1XeX7X;X2X7X,X6.p l.T.XXXX|.%X%XOX|.|.XXXX|.}.}.|.|._._._.}.|.",
"|.}.|.XXXXXXXXXXXXXXXXXXXXXX].!.c.R ^ N.3X0XrXrXrX,X6.p l.!.XXXXXXXXXXXX|.|.oX|.|.XX|.|.|._.Q.Q.}.XX",
"{.'.'.|.XXXXXXXXXXXXXXXXXXXXXXXX'.@.@.0.m.Z.iXyXqXD.5.u ` q.c.].XXXXXXXX|.|.|.|.XXXX|.|.|.(.Q.Q._.XX",
"'.).(.{.}.XXXXXXXXXXXXXXOX%XXXXX}.z.t.' 5.0.uXqX0XD._ u G ~ q.~.XXXXXXXX|.OX&XXXXXXXXXXXXX]._._.|.|.",
"[.).Q.).{.XXXXXXXXXXXXXX%X-XXXXXXXXX!.~ R W yX0X9XA._ 2 c b Q R.XX|.XXXX|.OX-XXXXXXXXXXXXXXX|.|.|.|.",
"XX}.{.'.}.XXXXXXXXXXXXXX|.XXXX].'.3./ g s 6 D 4 3 v V 4.s.s.i.H D Q ( q.XXXXoXXXXXXXXXXXXXXXXXXX|.|.",
"XX}.}.{.}.|.XXXX}.}.}.XXXXXX'.!.n.2./ g 8 7 7 < : i M <.p.p.m.Q F Q / @.!.'.|.XXXXXXXXXXOXOXOXXX|.oX",
"XXXXXXXXXXXXXX|.`._.].XX|.|.T.l.l.w.5.g 7 7 6 8 9 7 p B 8.u.m._ _ 5.5.5.l.x.].XXXXXXXXoX-X-X=XXXXXXX",
"XXXXXXXXXXXXXXXXXX|.|.XX|.|.@.~ R V.A.E 6 % [ [ ..[ d . 2 i H h.D.,XD.m.b @.(.XXXXXXXXoX-X-X=X|.XXXX",
"XX|.}.XXXXXXXXXXXX].`. X.XOXy.0.5.1X4Xd.K H k [ {  .h < A H _ F.6XqX3XD./ 0.z.!.^.XXXXoX*X*X&XXXXXXX",
"XX}.'.|.XXXXXXXXXXb.r.8.:XfXdXdXdXfXfXdX6XS.  X # A d.4XyXiXiXiXiXiXsXdXfXZ.W ( t.XXXXXXXXXXXXXXXXXX",
"XX|.}.XXXXXXXX}.y.y.B.C.:X3XuXuXiXdXdXdXqX1XF H K ] M.6XuXiXdXiXiXiXiXsXiXN.N ( t.XXXXXXXXXXXXXXXXXX",
"XXXXXXXXXXXXXX}.9.y.B.:X<X<XeXtXiXdXdXiXqX4X6.d.f.M.1XqXdXdXdXiXiXuXuXiXiXm.R ~ q.XXXXXXXXXXXXXXXXXX",
"XXXXXXXXXXXXXX^.m e.>XaX2Xa.<X3XyXiXsXyXyXyXdXiXdXiXdXdXdXdXdXdXaXuXuXtX0Xg.b ~ %.XXXXXXXXXXXXXXXXXX",
"XXXXXXXXXXXXXX}.v.v.e.u.C.2XrXuXiXdXdXdXiXiXdXiXiXiXdXdXsXdXiXdXiX2X<XF.k.f.#.z.T.XXXXXXXXXXXXXXXXXX",
"XXXXXXXXXXXXXXXXXXl.` W m.yXaXdXfXfXfXdXsXsXdXpXyXyXiXfXuXuXuXdXiX;Xm.6.} *.[.}.XXXXXXXXXXXXXXXXXXXX",
"XXXXXXXXXXXXXX}.q.e.e.m.>X6X2X<X:X7XuXuXuXiXdXqX5X4X8XyXM.h.h.4X8X.XS.k.} &.~.[.|.XXXXXXXXXXXXXXXXXX",
"XXXXXXXXXXXXXX'.^ e.m.<X1X6XZ.a.p.2X0XrXyXiXfXqXU.I.4X7X6.6.] U.$X+XH.j.} &.~.}.|.|.XXXXXXXXXXXXXXXX",
"XXXXXXXXXXXXXX^.V 6.N.tX0X3Xa.u.8.<X6X0XyXuXfX8XL.K.I.6XE F A H.@X@XP.J.} *.[.}.|.|.XXXXXXXXXXXXXXXX",
"XXXXXXXXXXXXXXXX`.t.r.,.w.a.Z.F.2X7XF.) A H fXwX+X+XwXsXu.8.8.P.$X$XY.J.} -._.|.|.XXXXXXXXXXXX=X=X-X",
"XXXXXXXXXXXXXXXXXXb.r.@.8.w.Z.<X3X,XM.F 4 4 4X4XP.+X5XpXB.i.e.+X$X@XP.G.| >.{.|.|.|.XXXXXXXXoX-X-X-X",
"XXXXXXXXXXXXXXXXXXE.b.q.@.2.Z.,X3Xf._ 4 ; 3 0.k.H.P.+XwXA.A.A.#X@XJ.G.=.>./.|.|.XX|.XXXXXXXXoX-X-X-X",
"XXXXXXXXXXXXXXXXXX].].R.@.Z m.Z.,XH 3 ; ; ; 4 K &.H.H.L.K.H.K.+XY.j.=.-.[.}.|.].|.].|.XXXXXXXXOXoXoX",
"XXXXXXXXXXXXXXXXOXoXOX'.l.( g.m.m.z - - ; - o e | =.=.=.j.j.j.H.j.=.=.>.XXXXXX].].'.|.XXXXXXXXXXoX|.",
"XXXXXXXXXXXXXXoX-X-X-XXX|.|.r.@.N 2 ; ; ; ; X : 0 J J J J J J J K /.%X-XXXXXXXXX}.'.'.'.XXXXXXXX|.|.",
"XX|.XXXXXXXXXXXX%X%XOX|.|.|.@.Q z 2 ; - - O o # 6 0 0 0 0 e S ) &.[.}.%XXXXXXXXXXX}.}.}.|._.)._.].|.",
"|.|.|.XXXXXXXXXX|.|.|.|.|.}.o.b 2 ; ; # O O . # $ 6 0 q 4 0 D &.>.[.}.|.XXXXXXXXXXXXXXXX|.(.Q.T.].XX",
"'.'.'.}.XXXXXXXXXXXX|.|._.T.L w O ; ; O o X o $ $ 5 a d $ < i l.(.|.XXXXXXXXoXXXXXXXXXXX|.(.Q.Q._.|.",
"'.'.(.}.}.XXXXXXXXXXXX_.;.U w > ; ; ; + @ o $ % 5 d j W y < < P o.!.].XXXXoXOXXXXXXXXXXX|.|._._.|.XX",
"'.).W.).{.XXXXXXXX|.|.W.U O + - ; > ; # # # % a q l W 7.p r $ = z z.(.|.XXOX-XXXXXXXXXXXXX|.|.|.XXXX",
"|.}.'.{.{.XXXXXXXXXX|.Q.Y + ; ; ; ; ; # o @ m g f f T ,.,.,.n = = :.(.|.XXXXXXXXXXXXXXXXXX|.|.|.XXXX",
"|.|.{.{.}.XXXXXX|.}.}.!.Y ; ; ; ; > ; O O & m j f h j 1.,.,.n = * ;.W.'.XXXXXXXXXXXXXXXX&XOXOX|.XXXX",
"XXXXXXXXXXXXXX|.'.'.{.Q.O.3 > > ; ; - O O & N T j s j N 1.,.B = & O.x.!.XXXXXX|.XXXX|.oX-X-X=XXXXXXX",
"XXXXXXXXXXXXXXXX|.|.|.|.].(.U e O - + X X X 9 F 1.1.E k a f 5 * @ t b I XXXX|.|.XXXXXXOX-X-X=XXXXXXX",
"XX|.|.|.XXXXXXXX|.|.XX|.|.XXU w & - - & @ @ 5 j V 1.T 9 f f i 2 t = x G |.|.|.|.XXXXXXoX&X=X&XXXXXXX",
"XX|.'.|.XXXXXXXXXXXXXX'.'.'.~ D , - & t c p 1 u p c u 1 N N Z C C t x x {.[.'.|.XXXXXXXXXXXXXXXXXXXX",
"XX|.|.|.XXXXXXXXXXXXXX'.(.(.o.! v , , c n M G b b v x i P C ,.<.,.v P I _.).Q.{.|.XXXXXXXXXXXXXXXXXX",
"XXXX|.|.XXXXXXXXXXXXXX'.).Q.$.o.! 2 , c n M ~ ! I I P P N N B C C P I o.{.).Q._.|.|.XXXXXXXXXXXXXXXX",
"XXXXXXXXXXXXXXXXXXXXXXXX}.'.'.'.^.N u t x N XXXX|.|.|.|.e > X X + :.(.|.|.}._._._.|.XXXXXXXXXXXXXXXX",
"XXXXXXXXXXXXXXXXXXXXXXXX|.}.}.}.).$.@.@.@.%.|.|.XXXXXXXX+.O.U U X.T.].|.|.|.|.|.|.|.XXXXXXXXXXXXXXXX",
"XXXXXXXXXXXXXXXXXXXXXXXXXXXX|.|.'.R.z.x.T.T.XX|.XXXXXXXXT.:.:.:.:._.].|.|.|.|.|.|.|.XXXXXXXXXXXXXXXX"
};
