/* XPM */
static char *result[] = {
/* columns rows colors chars-per-pixel */
"50 50 201 2 ",
"   c #2E4C37",
".  c #324935",
"X  c #324E3A",
"o  c #37513B",
"O  c #38523D",
"+  c #43423F",
"@  c #454343",
"#  c #494747",
"$  c #4A4646",
"%  c #4C4A4C",
"&  c #425744",
"*  c #435C49",
"=  c #514D52",
"-  c #575457",
";  c #5B5A5C",
":  c #625F5C",
">  c #45624D",
",  c #496754",
"<  c #4C6C56",
"1  c #536653",
"2  c #536955",
"3  c #5A655A",
"4  c #566D5B",
"5  c #5B6D5B",
"6  c #55745E",
"7  c #63615D",
"8  c #596F60",
"9  c #577363",
"0  c #5C7563",
"q  c #577C65",
"w  c #5B7A65",
"e  c #5D7E69",
"r  c #636364",
"t  c #686A66",
"y  c #6D6C69",
"u  c #726F6C",
"i  c #667766",
"p  c #6C7D6D",
"a  c #72716D",
"s  c #707B6B",
"d  c #747673",
"f  c #797775",
"g  c #777B72",
"h  c #7C7B76",
"j  c #7E7D7A",
"k  c #807C77",
"l  c #817E7A",
"z  c #5B8269",
"x  c #62826B",
"c  c #6E806D",
"v  c #7A8D6D",
"b  c #7C906F",
"n  c #6C8171",
"m  c #648973",
"M  c #6A8E79",
"N  c #748272",
"B  c #798975",
"V  c #7D8479",
"C  c #7E8E7B",
"Z  c #69957B",
"A  c #6B947A",
"S  c #7D9371",
"D  c #72937E",
"F  c #84827C",
"G  c #8A877D",
"H  c #838D7D",
"J  c #839A76",
"K  c #859C7A",
"L  c #899E7C",
"P  c #8CA27F",
"I  c #6F9D83",
"U  c #749984",
"Y  c #74A48B",
"T  c #77A58B",
"R  c #7CAA93",
"E  c #7AAC93",
"W  c #7BB196",
"Q  c #7EB39A",
"!  c #858581",
"~  c #888681",
"^  c #848F83",
"/  c #8C8B84",
"(  c #8E8C88",
")  c #918E86",
"_  c #928F88",
"`  c #859485",
"'  c #8C9384",
"]  c #8C9C83",
"[  c #889888",
"{  c #8C9C8A",
"}  c #909985",
"|  c #94938C",
" . c #98948D",
".. c #949A8D",
"X. c #9A9A8D",
"o. c #999692",
"O. c #979891",
"+. c #9C9B94",
"@. c #9E9D99",
"#. c #A19F99",
"$. c #8DA382",
"%. c #88A488",
"&. c #8CA28E",
"*. c #93A687",
"=. c #93AC85",
"-. c #94A38A",
";. c #96AA8A",
":. c #9CAC8E",
">. c #97B586",
",. c #98B786",
"<. c #96B488",
"1. c #9AB68B",
"2. c #9DBB8D",
"3. c #8EA492",
"4. c #83AA93",
"5. c #88AC96",
"6. c #94A293",
"7. c #9CA495",
"8. c #95AA96",
"9. c #9CAA94",
"0. c #9EA49A",
"q. c #9CAB9B",
"w. c #85B59B",
"e. c #9EBA91",
"r. c #95B39D",
"t. c #99B19D",
"y. c #A1A396",
"u. c #A5A49C",
"i. c #A9A59E",
"p. c #A3AA9D",
"a. c #A9AB9F",
"s. c #A3B694",
"d. c #A6BB95",
"f. c #A8BB96",
"g. c #A7B599",
"h. c #A9BE9A",
"j. c #A9B89C",
"k. c #8BBBA2",
"l. c #9FB0A0",
"z. c #93BCA3",
"x. c #9ABCA4",
"c. c #A6A6A1",
"v. c #A9A7A1",
"b. c #A6ACA2",
"n. c #ACABA3",
"m. c #AFAEA8",
"M. c #B1ADA6",
"N. c #B1AEA9",
"B. c #A5B1A3",
"V. c #ABB2A4",
"C. c #A5B4A8",
"Z. c #ACB4A9",
"A. c #ACB8AC",
"S. c #B1B5A7",
"D. c #B4B3AB",
"F. c #B9B7AF",
"G. c #B7BAAF",
"H. c #BBBBB3",
"J. c #C0BFB7",
"K. c #9FC18E",
"L. c #A0C08F",
"P. c #A2CE8C",
"I. c #A4C593",
"U. c #A7CC95",
"Y. c #A9CC97",
"T. c #A9C499",
"R. c #A7D391",
"E. c #AAD395",
"W. c #ACD896",
"Q. c #AED39A",
"!. c #AEDB98",
"~. c #B0D49C",
"^. c #B2DC9D",
"/. c #B5E09F",
"(. c #8FC2A8",
"). c #94C1A7",
"_. c #94C1AA",
"`. c #BEC1B6",
"'. c #BFCABB",
"]. c #B6E2A0",
"[. c #B9E4A4",
"{. c #BEE6A9",
"}. c #C0C1B6",
"|. c #C4C4BB",
" X c #C5CABE",
".X c #C9CBBF",
"XX c #C2E9AF",
"oX c #C5EAB2",
"OX c #C8EBB5",
"+X c #CAEDB8",
"@X c #C5CEC0",
"#X c #CBCCC3",
"$X c #CFCFC9",
"%X c #D2CFC9",
"&X c #D3D4CA",
"*X c #D8D8CF",
"=X c #D9D7D1",
"-X c #DDDDD4",
";X c #E1DFD7",
":X c #E0E0D6",
">X c #E3E2DA",
/* pixels */
"].].].].].].].].].].].].^.Q.Q.Q.].].].].Y.d.:.$.P J $.$.1.I.].].].].].].].^.Q.Q.^.].].].].].].].].].",
"].].].].].].].].].].].].^.Q.^.^.^./.^.^.t.6.[ C N p N H { e.^.].].].].].].^.!.^.^.].].].].].].].].].",
"].].].].].].].].].].].].].].]./.Q.Q.E.Y.O.^ d r ; = ; t g %.E./.].].].].].].].].].].].].].].].].].].",
"].].].].].].].].].].].].].].].Y.{ V d 3 f j @.@.@.@.@.@.j d t ;.U.].].].].].].].].].].].].].[.OXOXOX",
"].].].].].].].].].].].].].].].I.` j f r j ~ N.N.D.D.D.N.( f r &.2.Y.^.].].].].].].].].].].].].+X+X+X",
"].].].].].].].].].].].].].].].2.p O.o.| c.m.|.$X%X&X%X$Xn.O.V / ] K I.].].].].[.].].]./.].].].+X+X+X",
"].].].].].].].].].].].].].].I.*.F m.D.D.J.#X=X=X-X>X;X-X|.D.u.@.O.N ;.T.!./.].!.~.^.^./.].].].{.{.[.",
"].].].].].].].].[.[.].].]./.:.6./ D.H.@X$X$X;X;X>X>X>X>X#X|.m.n.0.h $.1.Q.^.].!.Q.Q././.].].].].].].",
"].].].].].].].[.+X+XOX/.Q.Y.l | D..X$X*X*X-X:X*X-X=X-X:X*X&X#X.XH.| j f E.Q.].].^.Q.W./././././.]./.",
"].].].].].].].].XX{.].K.1.7.#.v.}.*X*X%X.X X}.}.J.J.}.}..X#X&X%X Xm.o.( $.;.,.]./.^.^././.!.!.R././.",
"/././.].].].].].].].^.$.} _ N.H. X;X:X%X}.G.V.V.m.n.S.V.}..X&X&X#XH.i. .F C P ]./././././.R.P.P.!.].",
"Q.Q.Q./.].].].].].].].S k U D.|.=XG.S.n.V.V.V.V.Z.Z.n.a.V.S.S.g.V.|.a.| a g B /.[././././.R.P.P.!.].",
"Q.E.E.~.^./.].].].].].] ..o.H.H.}.D.S.B.g.B.V.V.V.V.B.b.V.V.S.V.a.n.a.+.G ' } ]./././.[././.W.!././.",
"Q.E.P.E.^./.]./.].]./.7.a.M.|.F.i.B.V.V.V.V.V.V.j.C.V.Z.V.V.S.a.p.+.u.a.+.7.y./././././././././././.",
"/.^.~.E.^./././.].].].j.S.G.H.S.y.7.y.g.{ ` c c c c p p ` 6.B.7.7.+.m.S.i.7.;./././././././.].].].].",
"/./.^.^.^./././.^.Q.Y.V.S.G.H.S.u.7.6.7.C N 1 2 2 4 1 1 N ` 9.7.7.u.V.F.a.7.-.E./././.{.{.{.XX/.].].",
"].].]./.].].]./.Q.e.;.m.V.D.F.S.n.-...[ x 5 o o o o o o 5 N [ ..7.Z.S.G.v.7.X.;.e.].].{.+X+XOX/.].].",
"].].]./.].].].].^.g.+.H.H.H.D.Z.A.q.[ 1 2 2 x x x m m x w w i 8.B.n.m.V.D.M.n.) 1.].^.{.+XOXOX/.].].",
"]./././.].].].].].j.+.H.H.H.V.S.C.B.[ * > < A A v Z D A 9 9 4 8.C.B.b.m.D.D.D.~ :.].].[.OXOXoX].].].",
"].^.Q./.].].].]./.j.+.D.F.H.D.V.p.B.&.> , < Z Z Z Z Z Z e 9 8 3.C.D.C.m.D.D.D._ :.].]./.]././.].].].",
"]././.].].].].]./.g.+.M.D.D.m.B.B.n 4 < 6 z Z I Y I U Y M x w p ` C.m.m.N.M.n./ :.].].].].].].].].].",
"].].].].].].].].].g.o.M.m.m.b.b.B.4 * 4 z m Z Y E Y R R I M e 9 p C.Z.Z.N.M.i./ :.].].].].].].].].].",
"].].].].].].].]./.g.o.M.n.n.m.b.Z.*   q Z I Y E E E E E R U U > 8 B.m.V.N.n.u./ :.].].].].].].].].].",
"].].].].].].].].].a.#.v.c.m.b.m.A.*   q Z I W W E Q Q Q 5.U U , 4 B.Z.n.n.n.u./ :.].].].].].].].].].",
"].].].].].].].].].g.@.v.v.n.m.C.C.>   6 Z Y Q Q Q Q Q Q Q R U < 6 B.Z.m.n.a.i./ 1.].].].].].].].].].",
"].].].].].].I.,.i ( +.n.n.Z.C.B.t.> X z Z Y Q w.(.k._._.k.5.U , 4 A.C.V.n.n.i.) y.].].].].].].].].].",
"/.].].]././.K.=.r ! +.0.0.0.O.+.6.&   z A T w.(.(._._._.z.5.U > 2 q.p.p.u.u.+./ :./.].].].].].].].].",
"].].].].]./.2.P ; j O.O.| [ U ^ [ O o x D 4.r.)._.z.z.x.l.t.T ; 1 ` ' { ' } ( / :./.].].].]././.].].",
"].].].].]./.K.$.; ! @.0.0.q.q.q.t.& . w D 4.x.x.x.x.x.x.x.t.&.4 5 9.9.9.u.7.+./ :.].].].].].].+XOXOX",
"].].].].].].2.$.; ! @.0.c.b.B.B.t.* . i D %.r.r.r.t.t.t.t.8.[ 3 5 q.p.p.u.7.7./ ;.L.E.^.].].[.+X+X+X",
"].].].].].].2.P - j @.c.b.Z.Z.C.T.+ . 6 D [ 5.3.5.3.3.3.-.{ U ; 7 V.V.a.a.a.u./ g 3 $.K.].].].+X+X+X",
"].].].].].].,.P = V +.c.b.b.B.B.B.3 1 B [ &.-.&.&.3.6.&.&.] H 0 s B.j.n.V.p.u./ d % P ,.].].[.[.[.{.",
"].].].].].].,.L % l @.c.n.b.b.l.9.N N { q.q.t.t.8.9.q.q.q.9.-.H ` a.a.a.n.n.p./ a # J <.].].].].].].",
"].].].].].].,.L # j @.v.m.m.b.@.' `.@X@X@X@X X'.'.'.'.@X.X.X@X X`...y.a.M.a.u.~ y @ S =.].].].]././.",
"].].].].].].>.J @ l +.v.n.n.c.+.) `..X|. X|. X X#X@X X@X.X X X|.}.} 7.u.M.i.v.~ u # J <.].W.E.E.^./.",
"/././.]././.=.J @ f +.v.n.n.p.+.} H..XJ.`.`.|. X#X|.@X X|.|.|.|.}.) X.u.M.v.v.~ u % K <.].R.P.P.^.].",
"Q.Q.E./././.>.J @ f +.c.n.m.c.@.) i.F.F.J.J.J.J.D.D.F.F.F.D.F.F.D.G +.i.M.i.#._ u @ S >.].R.P.P.^.^.",
"~.E.E.^././.>.J @ f O.c.c.m.c.O.G i.M.D.M.N.M.D.N.D.N.N.F.N.N.F.M.G X.u.M.i.#./ u O P >.].!.W.W.^.].",
"Q.E.P.E.^./.,.J @ f O.c.c.n.c.@.G #.M.M.M.M.M.M.M.N.M.M.M.M.M.M.a.G X.i.i.#.#./ y @ S >.].].].].].].",
"/./.E.~.~./.,.J # u ( O.O.@.@.( G #.M.i.M.i.i.n.M.N.M.n.M.M.M.n.u.G ) X.#.X. .G y # P ,.].].].].].].",
"/./.^./.^./.,.J # t l / _ _ _ / l #.n.n.M.i.n.M.N.N.M.N.M.n.n.i.u.F / _ | / / k t $ J ,.{.{.{./.].].",
"/./././././.,.J # : u f f h f f f #.i.M.M.M.n.n.M.n.M.N.M.n.i.i.#.l k l h g g a ; + J 2.+X+XOX/.].].",
"/./././././.,.L $ r u f k l l k k h k l F F G G k k F F l F F h h k k k k h h a 7 + S ,.+X+XOX/.].].",
"/./././././.,.J $ r u k l F ~ F G k l k k G l l l k l F F F l k h F l l G l k d 7 + v ,.oXoXoX/.].].",
"XX/.W./.].].,.J $ 7 u ~ (  . . . ._ _ _ ) ) ) ) _ / ) ) ) ) ) / ) | o.o.| ( / d 7 $ b >././.[./.].].",
"/./././.].].2.*.7 h / |  . . .o.X. . . . . . . . . . . .X._ |  . .o.o.o. .| _ ( V 7 K K././././.].].",
"/./././.].].I.=.a / X.o.o.o.o.o.X.X.X.X.X.X.X.X.X.X. .X.X.X. .#.7.+.#.o.X.X...X.H y P L./.[././.].].",
"/./././.]./.E.I.=.e.T.h.d.s.s.g.f.f.f.f.f.f.f.d.f.f.s.f.f.g.s.j.h.h.h.f.f.s.s.f.2.P P.!.[././.[.].].",
"/./././.[.]././.R.!.~.^.~.~.~.~.~.~.~.~.~.~.~.~.~.~.~.~.~.~.~.~.~.~.~.~.~.~.~.~.Y.Y.~.^.].].].].].].",
"{./././.[./././././././././././.].].].].].]././.].]././././.[./.].].].].].].].].].].].].].].].].].]."
};
