/* XPM */
static char *result[] = {
/* columns rows colors chars-per-pixel */
"50 50 56 1 ",
"  c #A2CE8C",
". c #A3CF8D",
"X c #A5CF8F",
"o c #A6D091",
"O c #A7D391",
"+ c #A8D192",
"@ c #AAD693",
"# c #A9D294",
"$ c #AAD294",
"% c #AAD295",
"& c #ABD296",
"* c #ACD397",
"= c #AAD694",
"- c #ACD896",
"; c #AED499",
": c #AED699",
"> c #AFD59A",
", c #AFD69A",
"< c #AEDA98",
"1 c #AEDB98",
"2 c #AFDB99",
"3 c #B0D79B",
"4 c #B0D89A",
"5 c #B0D99B",
"6 c #B1D99B",
"7 c #B0DC9A",
"8 c #B1DD9B",
"9 c #B2DB9C",
"0 c #B2DB9D",
"q c #B2DC9D",
"w c #B3DC9D",
"e c #B3DD9D",
"r c #B2DE9C",
"t c #B3DE9D",
"y c #B4DE9E",
"u c #B4DF9E",
"i c #B4DF9F",
"p c #B5DF9F",
"a c #B5E09F",
"s c #B5E19F",
"d c #B5E1A0",
"f c #B6E2A0",
"g c #B7E3A1",
"h c #B8E3A3",
"j c #B9E4A4",
"k c #BBE4A6",
"l c #BBE5A6",
"z c #BCE5A8",
"x c #BCE6A8",
"c c #BEE6A9",
"v c #C0E7AC",
"b c #C2E9AF",
"n c #C5EAB2",
"m c #C8EBB5",
"M c #C8ECB5",
"N c #CAEDB8",
/* pixels */
"ffffffffffff9;;6fffffffffffffffffffff9;;6fffffffff",
"ffffffffffffe66efffffffffffffffffffffe66efffffffff",
"ffffffffffffffffffffffffffffffffffffffffffffffffff",
"fffffffffffffffffffffhmmmfffffffffffffffffffffhmmm",
"fffffffffffffffffffffhNNNfffffffffffffffffffffhNNN",
"fffffffffffffffffffffhNNNfffffffffffffffffffffhNNN",
"ffffffffffffff333afffglllffffffffffffff333afffglll",
"ffffffffhhhfff>>;usfffffffffffffghhhfff>>;usffffff",
"fffffffhNNMffffw;;3fffffffffffffkNNMffffw;;3ffffff",
"fffffffgccxffffawwef-==8ffffffffgccxffffawwef-==8f",
"aaafffffffffffffffffO  1fffffffffffffffffffffO  1f",
";;;affffffffffffffffO  1f;;;affffffffffffffffO  1f",
";*+5effffffflvffffff<--rf;&+5effffffflvffffff<--rf",
";$ *3fffffffvNfffffffffff;+ *6fffffffvNfffffffffff",
"fw;;3ffffffffffffffffffffa5*;6fffffffghfffffffffff",
"fy669ffdeeefffffffhcczffffe66effaeetfffffffhcczfff",
"fffffffa;;;fffffffkNNMffffffffffu;;,fffffffkNNMfff",
"ffffffffaaafffffffkNNMffffffffffdyypfffffffkNNMfff",
"fsusfffffffuuusfffjnnbffffausfffffffuuuffffjnnbfff",
"fw;afffffff;;;afffffffffff9;affffffa;;;fffffffffff",
"fayffffffff;$X:0ffffffffffpwsffffffa;%o6efffffffff",
"fffffffffff>#.*6fffffffffffffffffffa>#.;6fffffffff",
"ffffffffffff9;;6fffffffffffffffffffff9;;6fffffffff",
"ffffffffffffpwwyfffffffffffffffffffffy99efffffffff",
"ffffffffffffffffffffffffffffffffffffffffffffffffff",
"ffffffffffff9;;6fffffffffffffffffffff9;;6fffffffff",
"ffffffffffffy99efffffffffffffffffffffe66efffffffff",
"ffffffffffffffffffffffffffffffffffffffffffffffffff",
"fffffffffffffffffffffhmmmfffffffffffffffffffffhmmm",
"fffffffffffffffffffffhNNNfffffffffffffffffffffhNNN",
"fffffffffffffffffffffhNNNfffffffffffffffffffffhNNN",
"ffffffffffffff633ifffglllffffffffffffff333afffglll",
"ffffffffkkkfff4,;qiffffffffffffffhhhfff>>;usffffff",
"fffffffhNNNffffw;;3fffffffffffffhNNMffffw;;3ffffff",
"fffffffgcccffffawwef<==2ffffffffgccxffffawwef-==8f",
"aaafffffffffffffffff@  -faaafffffffffffffffffO  1f",
";;;affffffffffffffff@  -f;;;affffffffffffffffO  1f",
";*+5effffffflvgfffff7--8f;*+5effffffflvffffff<--rf",
";$ *3fffffffvNhffffffffff;$ *3fffffffvNfffffffffff",
"fw;;3fffffffffffffffffffffw;;3ffffffffffffffffffff",
"fy669ffdeeefffffffhcczffffy669ffdeeefffffffhcczfff",
"fffffffa;;;fffffffkNNMffffffffffa;;;fffffffkNNMfff",
"ffffffffaaafffffffkNNMfffffffffffaaafffffffkNNMfff",
"fsusfffffffuuusfffjnnbffffsusfffffffuuusfffjnnbfff",
"fw;afffffff;;;afffffffffffw;afffffff;;;affffffffff",
"fayffffffff;$X:0ffffffffffayffffffff;$X:0fffffffff",
"fffffffffff>#.*6ffffffffffffffffffff>#.*6fffffffff",
"ffffffffffff9;;6fffffffffffffffffffff9;;6fffffffff",
"ffffffffffffpwwyfffffffffffffffffffffpwwyfffffffff",
"ffffffffffffffffffffffffffffffffffffffffffffffffff"
};
