/* XPM */
static char *_1f40b6e311145629e41370343ff876dSEY5h4iTKYvhZRWm[] = {
/* columns rows colors chars-per-pixel */
"32 32 4 1 ",
"  c #A2CE8C",
". c #AED499",
"X c #B6E2A0",
"o c #CAEDB8",
/* pixels */
"XXXXXXXX..XXXXXXXXXXXXXX..XXXXXX",
"XXXXXXXXXXXXXXXXXXXXXXXXXXXXXXXX",
"XXXXXXXXXXXXXXooXXXXXXXXXXXXXXoo",
"XXXXXXXXXXXXXXooXXXXXXXXXXXXXXoo",
"XXXXXXXXX..XXXXXXXXXXXXXX..XXXXX",
"XXXXXooXXX..XXXXXXXXXooXXX..XXXX",
"XXXXXXXXXXXXX  XXXXXXXXXXXXXX  X",
"..XXXXXXXXXXX  X..XXXXXXXXXXX  X",
". .XXXXXoXXXXXXX. .XXXXXoXXXXXXX",
"X..XXXXXXXXXXXXXX..XXXXXXXXXXXXX",
"XXXXX..XXXXXooXXXXXXX..XXXXXooXX",
"XXXXXXXXXXXXooXXXXXXXXXXXXXXooXX",
"X.XXXXX..XXXXXXXX.XXXXX..XXXXXXX",
"XXXXXXX. .XXXXXXXXXXXXX. .XXXXXX",
"XXXXXXXX..XXXXXXXXXXXXXX..XXXXXX",
"XXXXXXXXXXXXXXXXXXXXXXXXXXXXXXXX",
"XXXXXXXX..XXXXXXXXXXXXXX..XXXXXX",
"XXXXXXXXXXXXXXXXXXXXXXXXXXXXXXXX",
"XXXXXXXXXXXXXXooXXXXXXXXXXXXXXoo",
"XXXXXXXXXXXXXXooXXXXXXXXXXXXXXoo",
"XXXXXXXXX..XXXXXXXXXXXXXX..XXXXX",
"XXXXXooXXX..XXXXXXXXXooXXX..XXXX",
"XXXXXXXXXXXXX  XXXXXXXXXXXXXX  X",
"..XXXXXXXXXXX  X..XXXXXXXXXXX  X",
". .XXXXXoXXXXXXX. .XXXXXoXXXXXXX",
"X..XXXXXXXXXXXXXX..XXXXXXXXXXXXX",
"XXXXX..XXXXXooXXXXXXX..XXXXXooXX",
"XXXXXXXXXXXXooXXXXXXXXXXXXXXooXX",
"X.XXXXX..XXXXXXXX.XXXXX..XXXXXXX",
"XXXXXXX. .XXXXXXXXXXXXX. .XXXXXX",
"XXXXXXXX..XXXXXXXXXXXXXX..XXXXXX",
"XXXXXXXXXXXXXXXXXXXXXXXXXXXXXXXX"
};
