/* XPM */
static char *result[] = {
/* columns rows colors chars-per-pixel */
"50 50 227 2 ",
"   c #040505",
".  c #090A0B",
"X  c #0D0D12",
"o  c #131415",
"O  c #181B18",
"+  c #32101E",
"@  c #1D221B",
"#  c #21251E",
"$  c #0C1B22",
"%  c #131923",
"&  c #261B26",
"*  c #371D2F",
"=  c #1B242A",
"-  c #182634",
";  c #242627",
":  c #292A2B",
">  c #2C3328",
",  c #313B2C",
"<  c #252836",
"1  c #382535",
"2  c #29323C",
"3  c #303132",
"4  c #373539",
"5  c #46192C",
"6  c #4B253D",
"7  c #4F313E",
"8  c #3A4536",
"9  c #45533E",
"0  c #1D3649",
"q  c #252E43",
"w  c #27364A",
"e  c #343A48",
"r  c #283C53",
"t  c #3A3A56",
"y  c #492A43",
"u  c #572A46",
"i  c #46344A",
"p  c #473D59",
"a  c #593B57",
"s  c #632E4E",
"d  c #663956",
"f  c #763755",
"g  c #5E3E63",
"h  c #633C65",
"j  c #364649",
"k  c #2B4259",
"l  c #374659",
"z  c #3C5157",
"x  c #2B4662",
"c  c #364A69",
"v  c #3A536A",
"b  c #2F5773",
"n  c #385975",
"m  c #356279",
"M  c #4C4C47",
"N  c #474955",
"B  c #465758",
"V  c #58545A",
"C  c #76544E",
"Z  c #6B4A52",
"A  c #6A5757",
"S  c #7C5755",
"D  c #536549",
"F  c #566952",
"G  c #5B7150",
"H  c #6B635C",
"J  c #617656",
"K  c #647A59",
"L  c #494764",
"P  c #5B4B6B",
"I  c #475868",
"U  c #555A68",
"Y  c #475C72",
"T  c #6A4C6A",
"R  c #655B62",
"E  c #76527C",
"W  c #4B676A",
"Q  c #566667",
"!  c #56726C",
"~  c #4B6576",
"^  c #556979",
"/  c #59767A",
"(  c #6B716B",
")  c #647979",
"_  c #767377",
"`  c #88355E",
"'  c #903058",
"]  c #963463",
"[  c #A23B70",
"{  c #81435D",
"}  c #835B56",
"|  c #88625B",
" . c #87556A",
".. c #B54D7B",
"X. c #856963",
"o. c #936B68",
"O. c #997566",
"+. c #8E7674",
"@. c #A56371",
"#. c #6A825D",
"$. c #6C876C",
"%. c #718D64",
"&. c #79966B",
"*. c #6A8776",
"=. c #75957C",
"-. c #7FA07F",
";. c #978677",
":. c #839C74",
">. c #AF8878",
",. c #84A376",
"<. c #D19579",
"1. c #356885",
"2. c #35718F",
"3. c #387595",
"4. c #5A6686",
"5. c #5A7486",
"6. c #4F7293",
"7. c #65638E",
"8. c #667888",
"9. c #797786",
"0. c #636791",
"q. c #687C93",
"w. c #846387",
"e. c #3B84A8",
"r. c #3E8BB1",
"t. c #568397",
"y. c #6C8884",
"u. c #79878B",
"i. c #779785",
"p. c #6C8F97",
"a. c #798896",
"s. c #7AA086",
"d. c #7CA498",
"f. c #4F87AA",
"g. c #6A92AA",
"h. c #7793A9",
"j. c #7795AC",
"k. c #83848A",
"l. c #8F9194",
"z. c #AF968C",
"x. c #B9988C",
"c. c #85A889",
"v. c #8EB287",
"b. c #94B787",
"n. c #87B094",
"m. c #95BC92",
"M. c #99BF93",
"N. c #A4B288",
"B. c #8396A3",
"V. c #8697A7",
"C. c #969AA7",
"Z. c #8E9AB0",
"A. c #989DB1",
"S. c #AE9FA9",
"D. c #8AA5B8",
"F. c #90ADB1",
"G. c #95A7B8",
"H. c #98B2BC",
"J. c #A8A6AD",
"K. c #AAABB7",
"L. c #A4ADBC",
"P. c #B1AFB8",
"I. c #C19B8C",
"U. c #CCAC9C",
"Y. c #EBB397",
"T. c #D5B7A7",
"R. c #C8B5B0",
"E. c #E6BCA7",
"W. c #9EC58C",
"Q. c #9BC393",
"!. c #98C599",
"~. c #A0C78D",
"^. c #A2CD8D",
"/. c #A3CB95",
"(. c #A5CB95",
"). c #A5CE99",
"_. c #A7D293",
"`. c #AAD395",
"'. c #ACD896",
"]. c #A7D19A",
"[. c #ADD499",
"{. c #AEDA9B",
"}. c #B0D79B",
"|. c #B2DC9D",
" X c #B5E09F",
".X c #ADD8A3",
"XX c #B2D6A1",
"oX c #B6E2A0",
"OX c #B9E4A4",
"+X c #BDE6A9",
"@X c #DCC3BF",
"#X c #ECC2AD",
"$X c #F8D0B8",
"%X c #C1E8AD",
"&X c #C5EAB2",
"*X c #C8ECB5",
"=X c #CAEDB8",
"-X c #96ADC2",
";X c #9CB5C3",
":X c #A2AEC2",
">X c #A3B5C5",
",X c #A8B9C7",
"<X c #B7BBC9",
"1X c #AEBDD1",
"2X c #C1BFC5",
"3X c #ADC2CC",
"4X c #B5C4CF",
"5X c #BAC5D5",
"6X c #BCCAD5",
"7X c #BECCE0",
"8X c #C2C2CF",
"9X c #C4C5D3",
"0X c #C6CAD6",
"qX c #C2CCDB",
"wX c #CACDDC",
"eX c #C6D1DB",
"rX c #C9D1DD",
"tX c #D2D2DE",
"yX c #C9D5E1",
"uX c #CCD6E2",
"iX c #D5D5E4",
"pX c #D4DAE7",
"aX c #D8D9E6",
"sX c #DCDDEC",
"dX c #E0E0EF",
"fX c #E2E2F1",
"gX c #E8E8F8",
/* pixels */
"oXoXoXoXoXoXoXoXoXoXoXoX X'.'.}. XoXoXoXQ.v.) b.{.oXoXoXoXoXoXoXoXoXoXoXoX|.[.'.}.oXoXoXoXoXoXoXoXoX",
"oXoXoXoXoXoXoXoXoXoXoXoX X X{. X X{.{.{.M.c.^ c.]..XoXoX.X{.oXoXoXoXoXoX X|.}.|.|.oXoXoXoXoXoXoXoXoX",
"oXoXoXoXoXoXoXoXoXoXoXoX X X X X[.).].].n.i.n a.m.{.{.oX].].{.oXoXoXoXoXoXoXoXoXoXoXoXoXoXoXoXoXoXoX",
"oXoXoXoXoXoXoXoXoXoXoXoX X X X'.M.W v n q.a.,Xq.Y *.b.oXy./ y.].oXoXoXoXoXoXoXoXoXoXoXoXoXoXoX*X*X*X",
"oXoXoXoXoXoXoXoXOX XoXoXOX X/.M.v.Y Y 4.q.h.1Xq.^ i.n.|.5.8.y.m.).|. XoXoXoXoXoXoXoXoXoXoXoXOX=X=X=X",
"oXoXoXoXoXoXoXoX X XoXoX X Xy.i.u.G.G.:XD.Z.g.-X:XF.H.H.H.G.h.y.i.{.|. XoXoXoXoXoXoXoXoXoXoXoX=X=X=X",
"oXoXoXoXoXoXoXoX X X X X X X*./ 8.,X9XiX1X:Xq.-XqX5X,XD.<X>XZ.^ / ].|.oXoXoXoX{.}.}. XoXoXoXoX+X+X+X",
"oXoXoXoXoXoXoXoXOXOXOXOX X X*./ / L.9XsXwX1Xg.1XuXyX3X;X>XL.G.) *.]..XOXoXoXoX[.}.[.|. XoXoXoXoX X X",
"oXoXoXoX X XOXOX=X*X*X XoXoXoX].v.l I L.wXaXfXtXeXuXpXfX4.Y ) /.OX=X=X=XoXoXoXoX|.'.'. X X X X XoX X",
"oXoXoXoX XOX XOX%X%X+XoXoXoXoX{.~.) ) k.l.C.J.<X0X<XL.A.y.i.s.].OX+X+XOXoXoXoXoX X{. X X X'.'.'.|. X",
" X|. XoX X X X XoXoXoXoXoXoXoX|.[.c.i.( _ _ k.J.0XK.B.8.c.c.m.{.oXoXoXoXoXoXoXoX X X X XOX_.^.^. XoX",
"}.[.[. X X XOX XoXoXoXoXoXoX].].).(.b.A M M M k.J.B.U w c.W.).).'.oXoXoXoXoXoXoXoX X X X X_.^.W.'.oX",
"[.`._.}.|. X X XoXoXoXoXoX+Xi.=.*.K (  .{ { f Z V N 4 < ! ) y.y.s.{.oXoX XOX%X XoXoXoXoXoX{.{.'. X X",
"}.`.^.`.}. XOX XoXoXoX X+X=X! B w : 7 ......' 5 X . O = w r x c ~ ]..XoX X%X=X XoXoXoXoXoXoXoXoX X X",
" X|.}.}.}. XOX XoX X XQ.=.W p.V.C.l.9.A 7 6 + P 8.p.6.m r r I V.B.*.-.b. X+XOX X X XoXoXoXoXoXoX X X",
" X|.}.}.|. X X X X'.|.W.=.W C.L.<XP.C.R i 1 + ^ h.g.f.2.j N ( K.G./ =.s.{. XOX X XOX XOX+X+XOXoX X X",
"oXoXoXoXoXoXoXoX'.^.Q.n.y.^ :X5XwX9XP._ N M 3 q.D.g.6.2.z Q k.8X<X/ y.i.!.].oXoXoXoXoXOX=X=X*XoX X X",
"oXoXoX XoXoXoXoX Xd.p.h.>XaXdXsXsXiXtX8XP.P.C._ N q = $ k.K.8XaXaXqX>XZ.t.n.oXoXoXoXoXOX=X=X*XoXOX X",
"oX X X XoXoX X{.!.d.p.j.1XfXdXsXsXsXsXsXaXiX9X9.V 4 3 : P.wXaXsXsXfX5X-Xt.d.!.{.{.oXoXOX&X&X&XoX X X",
"oX|.[.oXoXoX!.m./ V.>XeXuXpXpXaXaXsXdXfXdXdXaX2XP.K.J.A.iXaXsXiXpXpXuXyXqXV./ c.M.oXoXoXoXoXoXoXoXoX",
"oX X X XoXoX].m./ h.L.6XwXuXeXwXtXsXfXfXfXdXdXiXwX9X8X5XaXsXaXwXwXuXyXqX5XV.~ c.m.oXoXoXoXoXoXoXoXoX",
"oXoXoXoXoXoX].m.*.h.G.<X6XtX6X6XqXsXfXdXdXdXfXdXsXaXaXiXsXsXiX9X6XyX9X4X>XB./ c.M.oXoXoXoXoXoXoXoXoX",
"oXoXoXoXoXoXoXoX Xi.W ^ Z.uXH.H.-XpXfXiXaXaXgXdXiXiXsXdXgXsXqXD.D.rXG.q.k *.[.[.[.oXoXoXoXoXoXoXoXoX",
"oXoXoXoXoXoX].W.$.u.a.V.D.-X;X,X3XrX9XC.C.S.@X@X@XR.J.C.qXrX6X,X;X>XA.V.a.a.s.Q.).oXoXoXoXoXoXoXoXoX",
"oXoXoXoXoXoX/.v.B a.A.:XD.g.;X3X6XeXP.) _ ;.Y.Y.Y.z._ N L.4X6X6X3Xj.j.-X1Xh./ c.!.oXoXoXoXoXoXoXoXoX",
"oXoXoXoXoXoX,.#.- ) C.;XD.g.;X3X6XeX>XI Q X.Y.Y.Y.+.F 0 L.6XeX6X,Xg.D.;X<XB.^ s.Q.oXoXoXoXoXoXoXoXoX",
"oXoXoXoXoXoXK M < W 8.V.D.1X-X>X,XrX4X6.8.k.#X#X#Xz._ x ,X6X6X3X>X-XG.D.Z.d.i.m.W. XoXoXoXoXoXoXoXoX",
"oXoXoXoXoXoX9 = 3 j c t.-XdX-XG.D.pXeXg.h.V.$X$X$XS.B.3.7XeX6XD.D.aX>Xj.m s..X XoXoXoXoXoXoXoXoXoXoX",
"oXoXoXoXoXoX8 o > 3 4 j I 4.:X<X8Xz.x.R.T.@X$X$X$XE.T.R.I.x.P.wX<Xq.u.i.!.'. X XoXoXoXoXoXoXoX*X*X=X",
"oXoXoXoXoXoX9 @ : : : 2 r c S.<XR.z.>.U.U.T.E.E.E.T.T.U.>.z.x.9X,X~ / =.W.W._. X{. XoXoXoXoXOX=X=X=X",
"oXoXoXoXoXoXD , O & & % < w w.C.S.l.;.>.x.I.I.I.I.x.I.I.;.;.C.K.V.l z F %.%.%.,.^. XoXoXoXoXOX*X=X=X",
"oXoXoXoXoX X,.#..   . X % - d S  .k.u._ X.X.S S S | } X.k.u.y.t.~ = = @ @ @ @ #.-.{. XoXoXoXoXOX+X+X",
"oXoXoXoXoXoX~.,.> @ o X O - u a T k.k.A C Z } } } C C 7 k.u.9.U l = o X       D K b. X X X X X X X X",
"oXoXoXoXoXoX X|.XX( j < * 5 N L U O.O.M Z S <.<.<.O.C 7 O.O.o.f s & = ; : : : = # O N.}. X X X X X X",
"oXoXoXoXoXoXoXoX.X$.B q e i c I U X.} N V H >.>.>.X.A , } | } d a * : : : ; # : > , ^.|. X'.'.'. X X",
" XoX|.oXoXoXoXoX X=.B w t L n Y Y S } p V V O.+.+.R V j C { Z P a y 1 1 : & @ , 8 9 _. X X'.^.^.'. X",
"[.[.}.|. X XoXoX X*.W x 1.3.3.2.v y 6 L c c k t k c c b y 6 i c n f s y % X   G &.oXoXoX X'.^.^.|. X",
"[.`._.}.|.oXoXoX Xv.=.! ~ b v L p t i g h h h h g P g P i y y p p T L t - j D ,.W.oXoXoX X'.'.'. XoX",
"[.`.^.`.}.oXoXoX X X{.-.! r i y y t t f ` ] ] ] ] ` ` ` p t t 6 y 6.n b q *.XX`.'. XoXoXoXoX XoXoXoX",
"oX|.[.}.}.oXoXoX X XoX_.=.! ( A T p g h E 7.w.w.E E E E t r q * * n x x q B %.b.^. XoXoXoXoXoXoXoXoX",
" X X|.|.|.oXoXoX X X|.'.m.=.:.;._ d N 4.7.7.7.7.7.6.0.6.r q < & & x k r < 9 9 %.b. XoXOX%X+XOXoXoXoX",
" X X XoX XoXoX X'.'.[.oX X XoX'.N.C d 6.f.r.e.e.e.r.f.r.0 - o o O 2 2 2 3 O   D &. XoXOX=X=X=XoXoXoX",
" XoX XoXoXoXoXoX X X XoXoXoXoX_.v.j 7 X.o.@.[ s 2 - = = O o .             D ~.'. XoXoXOX=X=X*XoXoXoX",
"oX X X XoXoXoXoXoXoXoX|.|.|.oX].v.8 2 X.o.@.[ s < = = ; ; ; # @ o O O O O K  X X X XoXoX&X&X%XoXoXoX",
"oX X}. XoXoXoXoXoX X X}.[.[.|._.v.j w / 9.9.7.L q j M G K K J G G G G G G ,.}.|.oXoXoXoXoXoXoXoXoXoX",
"oX X X XoXoXoXoXoX X X[.`._.[.(.b.z k 6.6.f.6.b r W $.~.~.~.~.~.W.W.W.W.,.~._.'. XoXoXoXoXoXoXoXoXoX",
"oXoX X XoXoXoXoXoXoX X}.`.^.[.(.b.! c 3.3.e.3.m z $.c. XoXoXoXoXoXoX X X}.'.^.'. X XoXoXoXoXoXoXoXoX",
"oXoX X XoXoXoXoXoXoX X X|.[.[.}. X Xb.8 = o o G Q. X X XoXoXoXoXoXoXoXoX X'.'.'. X XoXoXoXoXoXoXoXoX",
"oXoXoXoXoXoXoXoXoXoXoXoX X|.|. X XoX^.J D M 9 %._.oXoXoXoXoXoXoXoXoXoXoXoX X X X X XoXoXoXoXoXoXoXoX",
"oXoXoXoXoXoXoXoXoXoXoXoXoXoXoXoXoXoX_.&.#.K K ,.{.oXoXoXoXoXoXoXoXoXoXoXoXoX X X X XoXoXoXoXoXoXoXoX"
};
