/* XPM */
static char *result[] = {
/* columns rows colors chars-per-pixel */
"50 50 230 2 ",
"   c #030404",
".  c #0C0A0B",
"X  c #0D0E12",
"o  c #141514",
"O  c #161A18",
"+  c #1C1C1C",
"@  c #251B1D",
"#  c #20251D",
"$  c #161C28",
"%  c #291B28",
"&  c #341A28",
"*  c #15212A",
"=  c #1B2837",
"-  c #1D313B",
";  c #242426",
":  c #262B26",
">  c #2B2C2C",
",  c #2B3526",
"<  c #323A2D",
"1  c #262A36",
"2  c #382333",
"3  c #2A343A",
"4  c #313132",
"5  c #32393A",
"6  c #481D32",
"7  c #48253B",
"8  c #542D3B",
"9  c #3A4534",
"0  c #3B4739",
"q  c #41493D",
"w  c #44543C",
"e  c #1F364A",
"r  c #28394A",
"t  c #383445",
"y  c #33354C",
"u  c #482C45",
"i  c #592A46",
"p  c #45324A",
"a  c #483348",
"s  c #5A334A",
"d  c #473956",
"f  c #573959",
"g  c #6A3C52",
"h  c #533E63",
"j  c #693C61",
"k  c #763A63",
"l  c #2F474D",
"z  c #364449",
"x  c #3D514D",
"c  c #284458",
"v  c #354659",
"b  c #2C4863",
"n  c #374A67",
"m  c #3B5566",
"M  c #2F5371",
"N  c #375A74",
"B  c #35637A",
"V  c #474648",
"C  c #584947",
"Z  c #4D534C",
"A  c #474658",
"S  c #79544E",
"D  c #6D4E53",
"F  c #576C50",
"G  c #556854",
"H  c #75625D",
"J  c #647959",
"K  c #494964",
"L  c #554667",
"P  c #46586C",
"I  c #5B5C64",
"U  c #4E4F71",
"Y  c #445E75",
"T  c #6E506B",
"R  c #4A666A",
"E  c #546768",
"W  c #587568",
"Q  c #4D6576",
"!  c #546875",
"~  c #5A7675",
"^  c #6F666B",
"/  c #647B79",
"(  c #77757A",
")  c #873055",
"_  c #883D65",
"`  c #973C6C",
"'  c #8A5D57",
"]  c #86645E",
"[  c #92675A",
"{  c #8F5170",
"}  c #B4527C",
"|  c #8B6963",
" . c #93736F",
".. c #8A7975",
"X. c #A17766",
"o. c #B37E6A",
"O. c #6A835F",
"+. c #6B8768",
"@. c #76866A",
"#. c #7A966C",
"$. c #668476",
"%. c #6C8B7C",
"&. c #7C9977",
"*. c #7DA07C",
"=. c #9A867C",
"-. c #AB8879",
";. c #B58876",
":. c #88A878",
">. c #90B47F",
",. c #C08B75",
"<. c #346A88",
"1. c #3E708A",
"2. c #367797",
"3. c #397FA1",
"4. c #6C5B83",
"5. c #755883",
"6. c #576782",
"7. c #4A738F",
"8. c #5C7484",
"9. c #706F8A",
"0. c #657586",
"q. c #797886",
"w. c #687D92",
"e. c #577FA0",
"r. c #877686",
"t. c #3B84A9",
"y. c #3E8CB2",
"u. c #5B8696",
"i. c #6B8787",
"p. c #6A8F8E",
"a. c #76878A",
"s. c #779787",
"d. c #768995",
"f. c #7A9597",
"g. c #7FA584",
"h. c #75A194",
"j. c #4E8BAC",
"k. c #798BA2",
"l. c #6E95AC",
"z. c #6AAAD0",
"x. c #858689",
"c. c #898B96",
"v. c #84959C",
"b. c #95949D",
"n. c #B5978A",
"m. c #85A888",
"M. c #8DB28B",
"N. c #94B987",
"B. c #99BE8B",
"V. c #88AC97",
"C. c #8AB492",
"Z. c #96BD92",
"A. c #B5A29C",
"S. c #8695AB",
"D. c #8897A8",
"F. c #979AA6",
"G. c #929EB4",
"H. c #9CA2A5",
"J. c #8AA6B8",
"K. c #98A5B7",
"L. c #92AAB2",
"P. c #93ACBC",
"I. c #B7AAA7",
"U. c #A8AAB7",
"Y. c #A7B0BC",
"T. c #B3B1BB",
"R. c #CFAA96",
"E. c #EBA886",
"W. c #F1BC9F",
"Q. c #CDB5A9",
"!. c #C1B4B6",
"~. c #E4BDA9",
"^. c #E1BFB6",
"/. c #9EC58C",
"(. c #9CC494",
"). c #9AC398",
"_. c #A1C58E",
"`. c #A2CD8D",
"'. c #A2CA95",
"]. c #A6CF99",
"[. c #A7D295",
"{. c #AAD395",
"}. c #ACD896",
"|. c #ADD49A",
" X c #AED99A",
".X c #B0D79B",
"XX c #B2DC9D",
"oX c #B5E09F",
"OX c #AAD4A5",
"+X c #B6E2A0",
"@X c #B9E4A4",
"#X c #BDE6A9",
"$X c #DBC1B1",
"%X c #E5C4B8",
"&X c #F1C9B2",
"*X c #F8D0B8",
"=X c #C1E8AD",
"-X c #C4E8B3",
";X c #C8ECB5",
":X c #CAEDB8",
">X c #98ADC1",
",X c #9CB4C3",
"<X c #9EB6C4",
"1X c #A8B8C7",
"2X c #ABBBCE",
"3X c #B6BAC8",
"4X c #CEBDC9",
"5X c #ACC2CC",
"6X c #BAC3CE",
"7X c #AEC1D1",
"8X c #B9C5D5",
"9X c #95C4E9",
"0X c #C4C5D2",
"qX c #CFC7D1",
"wX c #C3CBD4",
"eX c #C3CDDC",
"rX c #CCCDDC",
"tX c #C7D3DC",
"yX c #CAD2DE",
"uX c #E5D1D2",
"iX c #C2CCE1",
"pX c #CDD4E3",
"aX c #CED9E4",
"sX c #D4D5E4",
"dX c #D3D9E6",
"fX c #DCDCEB",
"gX c #DBE1EE",
"hX c #E0E0EE",
"jX c #E2E3F2",
"kX c #E8E8F8",
/* pixels */
"+X+X+X+X+X+X+X+X+X+X+X+XXX|.|.XX+X+X+X+X+XXXZ.]. XoX+X+X+X+X+X+X+X+X+X+X+X X|.|..X+X+X+XoX@XoXoXoX@X",
"+X+X+X+X+X+X+X+X+X+X+X+XXX.X.XXX+X+X+X+X.X].%.C.].+X+X+X+X+X+X+X+X+X+X+X@XXX.X XoX+X+X+XoXoXoXoXoXoX",
"+X+X+X+X+X+X+X+X+X+X+X+X+X+X+X+X+X+X+X+X{.Z.b %.Z.oXoX+X+XoX+X+X+X+X+X+X+X+X+X+X+X+X+X+X@XoXoXoX@XoX",
"+X+X+X+X+X+X+X+X+X+X+X+X+X+X+XXX].~ R ! / w.K.w.~ %.M.@Xs.i.i.].+X+X+X+X+X+X+X+X+X+X+X+XoXoX@X;X:X;X",
"+X+X+X+X+X+X+X+X+X+X+X+X+X+X|.].(.! ! 6.6.w.>Xk.8.i.C.OXp.i.i.Z.|.+X+X+X+X+X+X+X+X+X+X+X+X+X@X:X:X:X",
"+X+X+X+X+X+X+X+X+X+X+X+X+XoXZ.C.m.d.w.w.k.k.>XG.k.d.V.OXV.k.d.s.M. X X+X+X+X+X@X+X+X+X+X+X+X@X:X:X:X",
"+X+X+X+X+X+X+X+X+X+X+X+X+X+X%./ Q 2XeXrXiX2Xe.J.2X8X<XL.2X3XK.8.~ ).].+X+X+X+X|..X.XoXoX+X+X@X@X#X#X",
"+X+X+X+X+X+X+X+X+X@X+X+X+X+X%.~ Q 3XsXfXfXiXe.,XiXdX7XP.2X3X1X8.R (.OX@X+X+X+X|.|.|.oXoX+X+XoXoXoXoX",
"+X+X+X+XoX@XoX@X:X:X:XoX+X+X X(.M.P ! K.rXsXpXwXeXaXaXdXw.0.0.Z.OX#X-X:X+X+X+X+XXX}.}.}.oXoXoXoX+XoX",
"+X+X+X+X@XoX@X+X=X@X#X+X+X+XXX|._./ ! c.U.U.3X0XrX6X3X3Xd.a.%.(.XX@X#X#X+X+X+X+XoXoXoXoXoX}.}.}.oXoX",
"oXXXoX+XoXoXoXoX+X+X+X+X+X+X+X+X.X/ ( a.c.F.U.3XwX3XY.K.f.s.s.'.+X+X+X+X+X+X+X+XoX+XoXoXoX}.`.`.}.+X",
".X|.|.oXoX@XoXoX+X+X+X+X+X+X+X+XoXoX_.J q < V x.T.Y.0.r m.(.oXoX+X+X+X+X+X+X+X+X+X+XoXoXoX}.`.`.}.+X",
"|.{.{..XXXoXoX@X+X+XoXoX@X=XM.m.&.#.@.] ' k g H ^ ^ x 1 W %.s.m.V.].XX+X+X@X=X+X+X+X+X+X+X X}.}.oX+X",
".X{.`.{..XoXoXoX+X+XoXoX=X:X%.E m 0 C { } } ) 6 % * % ; r v m Y ~ ). X+X+X=X:XoX+X+X+X+X+X+XoXoX+X+X",
"XXXX.X.X.XoXoXoX+XoXoX}./.*.p.i.0.I I { { ) 8 s A z l c r y K 8.i.s.M.(.+X@X@XoX+X+X+X+X+X+X+X+X+X+X",
"+XXX.X.XXXoX@XoXoXoXoX}.m.+.s.D.D.x.9.D g i & L 6.w.7.B c l A v.D.$.%.*.oXoX+X+X+X+XoX@X#X#X#X+X+X+X",
"+X+X+X+X+X+X+X+X|.|.|.].$.r v.Y.rX0XU.I > O   Q J.9Xz.y.c z V T.1X! R W oXoXoXoX+X+X+X@X:X:X-X+X+X+X",
"+X+X+X+X+X+X+X+X+XC.h.u.P.rXfXfXhXsXqX3XT.U.c.q.I y e * / F.T.sXsX0X1XU.u.g.OX@X+X+X+X@X:X:X:XoX+X+X",
"+X+XXX+X+X+X+X+X].h.h.u.1XjXjXhXfXfXhXhXfXfX0Xr.I 4 ; O b.3XsXfXfXjXaX7Xu.h.).|. X+X+X@X-X;X=X+X+X+X",
"+X X|.+X+X+X+X Xs.V.J.<X8XgXfXfXfXfXhXjXjXjXrXU.b.q.( ^ T.0XsXfXfXfXaXeX>Xh.f.C.).+X+X+X+X+X+X+X+X+X",
"+X+XXX+X+X+X+X|.Y k.>XdXdXaXdXsXsXfXhXjXkXjXfXqX4X3XT.U.rXsXfXsXsXdXaXaXiXK.! s.C.@X+X+X+X+X+X+X+X+X",
"+X+X+X+X+X+X+X].Y k.K.dXaXtXtXtXrXhXjXjXjXjXhXhXfXfXsXsXfXfXhXrXrXaXaXaXsXJ.6.i.m.oX+X+X+X+X+X+X+X+X",
"+X+X+X+X+X+X+X+X+Xg./ P S.sX1XP.J.sXjXsXsXsXkXhXsXsXfXhXjXgXsXP.J.8X2XK.c $.(.{.XX+X+X+X+X+X+X+X+X+X",
"+X+X+X+X+X+X+X Xm.a.a.w.S.1X<X<X1XyXpX1XU.U.uXuXuXqX3X1XtXpXpXY.P.1XY.G.6.a.M.(.{.+X+X+X+X+X+X+X+X+X",
"+X+X+X+X+X+X+X|.$.i.d.S.G.J.,X<X5XtXeXF.c.c.%X%X^.Q.H.a.3X6XtX5X<XP.J.J.S.f.f.C.`.+X+X+X+X+X+X+X+X+X",
"+X+X+X+X+X+X+X'.= ( F.sX>X7.P.5XtXwXY.P V V E.E.E.o.D * v.U.wXtX7Xl.l.l.jXG.Q 8.m.+X+X+X+X+X+X+X+X+X",
"+X+X+X+X+X+X#.J 1 P / J.z.P.P.1X5XtX8Xw.Q ! W.W.W.n.( e L.5XtX5X1XJ.J.J.,XD.i.g.(.oX+X+X+X+X+X+X+X+X",
"+X+X+X+X+X+Xq + > l v 6.K.hX1XP.J.aXgXl.u.u.*X*X&X!.b.2.2X8XaXL.J.eX6X1XN s.[.+XoXoX+X+X+X+X+X+X+X+X",
"oX@XoXoX+X+X9 o 4 5 r m 0.G.U.>X1XI.!.H.H.H.*X*X*X$XI.v.T.I.!.7X,XG.F.D.p.C. XoXoXoXoXoX+X+X@X:X;X;X",
"oXoXoXoX+X+X9 o > 3 5 z U 0.G.1X6XA.A.A.A.I.&X&X&X$XQ.A.A.A.Q.3X1XS.d.d.g./.}.oXoXoX@XoX+X+X@X:X:X:X",
"oX@XoXoXoXoX0 O : > > 1 r r S.1X0Xn.-.R.R.~.&X~.$X&X$X~.-.n.-.4X3X! R R `././.}. XoXoXoX+X+X+X:X:X:X",
"@XoXoXoXoXoX/.:.. . . X $ = m Q 0.a.a...| [ ] ] ] ] ] | r.x.a.{ T t 1 * , , , F #.oXoXoX+X+X+X@X#X@X",
"+X+X+X+X+X+X+X_.# # $ + $ $ r v P d.x.^ S D S S S S S C %.q.q.D i % $ $       q J _.XXoXoXoXoXoX+X+X",
"oX@X+X+X+X+X+X.X:.#.:.J x $ 5 d L  ...D C C o.;.o.[ S 8 | ..=.I h t & & # $ + : , w _..XoX@XoXoX+X+X",
"+XoX+X+X+X+X+XXXB.B.B.&.G * u s k X. .C C C ,.,.;.X.S 5 ] ]  .U N p 7 2 > ; : : # , `.XXoX}.}.}.oX+X",
"oXoXoX+X+X+X+X+XoX{._.:.I & i s g ' [ C V C ;.;.;.-.H 5 S ] | Q N d p u > > : : # O `.oXoX}.`.`.}.+X",
"}.}.{.oX+X+X+X+XXX#.G $ 7 ) h L N u 7 d n M c b v b M M u u i <.1.3.<.<.* X   w #.+X+X+XoX`.`.`.}.+X",
"}.}.{..XXX+X+X+X+X&.E 1 d T L K d p u h h L h h h h h L f p y h K <.M M X = 0 O.:.+X+X+XoXoX}.}.oX+X",
" X{.`.{..X+X+X+X+X&.G r n 6.K d y p d h j k k k k _ k k d d y d d n c r X 0 +.:.>.oXoX+XoXoXoXoX+XoX",
"oXXX}..X.X+X+X+X+Xg.$.n N 2.A a 7 y d j k _ _ ` ` ` ` _ f d y 6 6 1 e =   Z :./.}.oX@XoX@XoXoXoX+X+X",
"oXoX.X.XXX+X+X+XXXM.g.~ R c t 4 & y v U 4.4.5.5.5.5.4.4.h f u & @ 2 1 > o < w :.N.oX+X@X=X=X@XoX+X+X",
"oXoX@X+XoX+X+XoX|.|.|._.F o o O + e r 2.3.y.t.t.3.y.y.j.L s 6 .   ; > < 4 + . 9 #.oXoX@X:X:X:X+X+X+X",
"oXoXoX+X+X+X+X+X+X+X+X{.:.O.x 5 $ = e r b c b P 5.5.r.x.L 7 % .   . o o o q F :.>.oXoX@X:X:X:XoX+X+X",
"oXoXoXoX+X+X+X+X+X+X+X{.>.:.G z = - r l r c e n k r.r.x.C 5 ; o . o O O O w #.>.`.oXoXoX=X;X=XoX+X+X",
"@XoX.XoX+X+X+X+X+X+XoX}.}.}.@.W x x x 0 0 5 = p k r.r.} V 5 = , , < < , , J `.XX+X+X+X+X+X+X+X+X+X+X",
"oXoXoXoX+X+X+X+X+X+X+X.X{.`.B.B.B.B.B.N.>.&.e b <.e.e.j.M c x &.N.>.>.>.>.>.`..XoX+X+X+X+X+X+X+X+X+X",
"oXoXoXoX+X+X+X+X+X+XoX.X{.`.{..X+X+X+X+X}.N.l M <.2.3.3.B m R ).oXoXoXoX.X}.`.}.oXoX+X+X+X+X+X+X+X+X",
"@XoXoXoX+X+X+X+X+X+XoXoX.X.X.X.X+X+X+X+X.X|.N.$.x 1 1 e +.*./. XoX=XoXoXoX}.}.}.oXoX+X+X+X+X+X+X@XoX",
"oXoXoXoX@XoX+X+X+X+X+X+XoXoXoXoXoXoX+X+XoXoX}.#.F 9 < 9 &.M. XXXoXoXoX+X+XoXoXoXoXoXoX+X+X+X+X+X+X+X",
"oXoX@XoXoX@X+X+X+X+X+X+XoXoX@XoXoXoX+X+XoX+XoX:.F 0 9 9 :./.+X+X@XoX@XoX+X+XoXoXoXoX+X+X+X+X+X+X+X+X"
};
