/* XPM */
static char *result[] = {
/* columns rows colors chars-per-pixel */
"50 50 215 2 ",
"   c #010102",
".  c #05070A",
"X  c #0C0C0D",
"o  c #0D100D",
"O  c #0A0D11",
"+  c #150A10",
"@  c #0D1217",
"#  c #121313",
"$  c #151A13",
"%  c #16171C",
"&  c #1B1B1B",
"*  c #24121B",
"=  c #1D201C",
"-  c #21241F",
";  c #0F1B22",
":  c #161C25",
">  c #251C24",
",  c #1A2228",
"<  c #192D37",
"1  c #1B323F",
"2  c #232323",
"3  c #262C23",
"4  c #23252A",
"5  c #252A2C",
"6  c #2C2C2C",
"7  c #2C3428",
"8  c #282834",
"9  c #322C36",
"0  c #303030",
"q  c #323738",
"w  c #4E1C32",
"e  c #4A243B",
"r  c #4F323A",
"t  c #3A4637",
"y  c #434C3C",
"u  c #45543D",
"i  c #1D2C40",
"p  c #1D3847",
"a  c #23374C",
"s  c #343449",
"d  c #472C47",
"f  c #5A2D48",
"g  c #483845",
"h  c #543855",
"j  c #672544",
"k  c #78264B",
"l  c #6B3D47",
"z  c #3A4A45",
"x  c #274559",
"c  c #344A55",
"v  c #2D4361",
"b  c #374C68",
"n  c #2B516C",
"m  c #3A5669",
"M  c #2C5C76",
"N  c #3B5B74",
"B  c #386173",
"V  c #45464A",
"C  c #4A5B45",
"Z  c #534850",
"A  c #4A5D58",
"S  c #545559",
"D  c #664747",
"F  c #664456",
"G  c #4D614B",
"H  c #54674B",
"J  c #586D56",
"K  c #627858",
"L  c #4B4863",
"P  c #5A4666",
"I  c #535964",
"U  c #465973",
"Y  c #4C5970",
"T  c #48626A",
"R  c #576565",
"E  c #58766A",
"W  c #4D6677",
"Q  c #55697A",
"!  c #5A7677",
"~  c #68656B",
"^  c #6D6D72",
"/  c #746B7A",
"(  c #627E79",
")  c #822B50",
"_  c #863C64",
"`  c #8A5E5A",
"'  c #885272",
"]  c #935173",
"[  c #A1597B",
"{  c #81637D",
"}  c #6B8766",
"|  c #718C64",
" . c #79966B",
".. c #7C9B6D",
"X. c #698775",
"o. c #769677",
"O. c #829F72",
"+. c #83A374",
"@. c #8BAC7B",
"#. c #8FB07E",
"$. c #306B88",
"%. c #377595",
"&. c #576A86",
"*. c #5A738B",
"=. c #467798",
"-. c #5D7894",
";. c #677986",
":. c #70738B",
">. c #8D738D",
",. c #A77A96",
"<. c #3A82A5",
"1. c #5E8A92",
"2. c #688586",
"3. c #748D8B",
"4. c #739483",
"5. c #789788",
"6. c #6D8F92",
"7. c #768498",
"8. c #799999",
"9. c #7DA389",
"0. c #79A495",
"q. c #4C8CAD",
"w. c #6A8DA7",
"e. c #7693A6",
"r. c #7FA0B5",
"t. c #8A8A98",
"y. c #81949E",
"u. c #92929D",
"i. c #86AB86",
"p. c #8AAD8C",
"a. c #8EB283",
"s. c #8DB18E",
"d. c #93B682",
"f. c #94B988",
"g. c #87A59A",
"h. c #8BB696",
"j. c #95BC93",
"k. c #97BB95",
"l. c #808AA1",
"z. c #8696A7",
"x. c #979CA8",
"c. c #899DB3",
"v. c #AF8FA8",
"b. c #B892AB",
"n. c #8AA3AB",
"m. c #91ABAF",
"M. c #87A4B8",
"N. c #99A4B7",
"B. c #94ACBC",
"V. c #9CABBB",
"C. c #9DB5B8",
"Z. c #A2ABBD",
"A. c #A8ABB9",
"S. c #BFA6BC",
"D. c #B2B2BD",
"F. c #C19EB5",
"G. c #9DC38B",
"H. c #9DC493",
"J. c #9BC696",
"K. c #A1C78E",
"L. c #A2CD8D",
"P. c #A1C296",
"I. c #A4CC94",
"U. c #A4CE98",
"Y. c #A7D292",
"T. c #AAD395",
"R. c #ACD896",
"E. c #A6D09A",
"W. c #ADD499",
"Q. c #AED99B",
"!. c #B0D79B",
"~. c #B2DC9D",
"^. c #B5E09F",
"/. c #B3D7A8",
"(. c #B6E2A0",
"). c #B9E4A4",
"_. c #BDE6A9",
"`. c #C0E7AC",
"'. c #C2E9AF",
"]. c #C3E5B4",
"[. c #C5EAB3",
"{. c #C8EBB5",
"}. c #CAEDB8",
"|. c #96ACC4",
" X c #9EB4C1",
".X c #A3AEC1",
"XX c #A4B5C3",
"oX c #A7B6C4",
"OX c #A5BAC9",
"+X c #A9BECC",
"@X c #B7BAC9",
"#X c #B4BBCB",
"$X c #AEBDD0",
"%X c #C7B0C5",
"&X c #CFBCD1",
"*X c #B2C1CE",
"=X c #ADC0D0",
"-X c #BBC4D4",
";X c #B8C6D6",
":X c #C4CCDB",
">X c #C8C9D8",
",X c #D3C8DA",
"<X c #C5D0DB",
"1X c #CDD2DE",
"2X c #D0D2DF",
"3X c #CCCFE1",
"4X c #CDD2E2",
"5X c #D4D5E4",
"6X c #D9D6E7",
"7X c #D4D9E5",
"8X c #D8D8E7",
"9X c #DCDCEB",
"0X c #E1E1EF",
"qX c #E3E3F3",
"wX c #E8E8F8",
/* pixels */
"(.(.(.(.(.(.(.(.(.(.(.(.^.R.!.!.^.^.^.^.(.(.(.(.(.(.(.(.(.(.(.(.(.(.(.(.(.Q.W.W.!.(.(.(.^.^.(.(.(.(.",
"(.(.(.(.(.(.(.(.(.(.(.(.~.!.~.^.^.^.^.).(.(.(.(.(.(.(.(.(.(.(.(.(.(.(.(.).~.~.Q.~.(.(.(.^.^.(.(.(.(.",
"(.(.(.(.(.(.(.(.(.(.(.(.).^.^.(.^.^.^.^.^.(.(.).(.^.(.(.(.(.(.(.(.(.(.(.(.(.(.(.(.(.(.(.^.).^.^.(.^.",
"(.(.(.(.(.(.(.(.(.(.(.(.^.^.^.(.^.^._.^.^.).{.k.5.p.I.(.(.(.(.(.(.(.(.(.(.(.(.(.(.(.(.(.^.^.).[.}.{.",
"(.(.(.(.(.(.(.(.).^.^.(.(.(.(.^.^.^.~.(.(.(.].g.2.5.j.Q.~.~.(.(.(.(.(.(.(.(.(.(.(.(.(.(.(.(.).}.}.}.",
"(.(.(.(.(.(.(.(.^.^.^.^.(.(.(.~.Q.R.Q.).Q.Q./.4.Q ! i.U.U.E.Q.~.(.(.(.(.(.(.(.(.(.(.(.(.(.(.).}.}.}.",
"(.(.(.(.(.(.(.(.^.^.(.(.(.(.!.U.H.! 2.J.h.p.W 7.m.y.2.&.W ! 4.U.(.(.(.(.(.(.).W.!.!.~.(.(.(.)._._._.",
"(.(.(.(.(.(.(.(.).).).(.(.(.U.k.p.W Q h.p.5.b z.C.c.-.U b T ( j.~.(.).).(.(.).E.W.W.^.(.(.(.^.^.^.^.",
"(.(.(.(.^.^._.^.}.{.{.^.(.(.o.4.3.N.C.m.C.C.V.c.e.M.|..XN.c.l.;.5._.].}.(.(.(.(.~.R.R.R.^.^.^.^.^.^.",
"(.(.(.(.^.^.^._.`.`._.(.(.(.X.2.;.+X#XC. XOX3XB.w.B.$X3X&X.Xx.( X./.)._.(.(.(.(.^.^.^.^.(.R.R.R.^.^.",
"^.~.^.(.^.^.^.^.(.(.(.(.(.(.! ! Q @X-XOX=X=XqX Xw.M.;XwX2X@XN.W ! J.Q.(.(.(.(.(.^.^.(.(.(.R.L.L.^.^.",
"!.W.W.^._.^.^.^.(.(.(.(.(.(.^.Y.d.y S @X1X7X<X7XqX9X6X3XS Z K P.(.(.(.(.(.(.(.(.^.^.^.^.^.Y.L.L.R.^.",
"W.T.T.!.~.^.^.).(.(.^.^._.'.J.p.5.A L y.A.-X1X7X8X>XD.x.I I E 5.j.^.(.(.^.).'.(.^.^._.^.^.^.R.R.^.^.",
"!.T.L.T.!.^.^.^.(.(.^.^.'.}.4.2.( m U Q t.N.7X7X5XD.u.^ T T T ! 4.Q.~.(.(.'.}.^.^.^.^.^.^.^.^.^.^.^.",
"^.~.!.!.!.^.^.^.(.^.^.R.L.G.6.2.-.-.&.L :.t.1X;X>Xu.~ f &.;.1.*.3.H.L.R.(.(._.^.).^.^.^.^.^.).^.^.).",
"^.~.!.!.~.^.^.).^.^.^.L.i.X.8.z.N.M.l.I / :.=X=XD.t./ f :.c.c.c.e.o.9.G.(.(.(.(.^.^.^._.`._._.^.^.^.",
"(.(.(.(.(.(.(.(.W.R.R.f.E a V.:X9X2X%X] ' / M.M.M.>.' ) S.,X5X9X#Xb E o.^.^.(.(.(.(.(.).}.}.{.^.^.^.",
"(.(.(.(.(.(.(.(.^.h.0.8.m.Z.>X,X6X6X,XS.v.v.{ { { >.,.b.2X6X6X6X>XN.n.y.0.J.(.(.(.(.(.).}.}.{.^.^.^.",
"(.(.~.(.(.(.(.~.Q.h.0.w.B.-X1X4X8X9X6X,XS.b.] ] ] ,.b.&X9X9X9X5X3X-XC.n.1.0.R.^.^.(.(.).{.[.'.^.^.).",
"(.~.W.(.(.(.Q.W.j.0.8.r.OX7X5X7X8X9X9X9X%XF.[ [ [ F.&X0X9X9X6X8X7X7X=X|.w.8.f.U.Q.(.(.(.(.(.^.^.^.^.",
"(.^.~.(.(.(.J.k.W e.XX;XOXB.:X1X8X8X5X9X2X,XS.S.%X,X6XwX6X8X8X6X4XOXXXOX*Xz.Q i.j.(.(.(.(.(.).^.^.^.",
"(.(.(.(.(.(.J.h.U z.oX-X XM.;X7X8X5X8X6X8X6X2X9X9XqXqXwX6X8X8X9X4XB.XX*X5Xz.N 4.h.(.(.(.(.(.^.(.).).",
"(.(.(.(.(.(.~.W.k.5.;.7.V.3X4X5X8XqX9X8X6X8X9XqXqXqX9X8X0X9X0X7X3X:X.Xx.&.3.s.P.U.^.^.(.(.(.(.(.(.(.",
"(.(.(.(.(.(.~.W.k.5.;.7.V.;X4X5X8X9XqX8X8X8X0X0XqX9X6X5X0X0X9X8X5X:XN.7.c ( a.K.U.^.(.(.(.(.(.(.(.(.",
"(.(.(.(.(.(.~.W.k.3.;.7.B.;X3X4X8X9X0X8X6X9XqXqXqX9X6X5X0X9X9X6X5X:Xc.;.i R @.L.R.(.^.^.(.(.(.(.(.(.",
"(.(.(.(.(.(.J.p.b z.#X;Xr.=.+X3X9X5X5X9X0XqXwX9X5X6X6X0X5X5X6XqX4Xq.m 1       H ..(.^.^.(.(.(.(.(.(.",
"(.(.(.(.(.).U.J.2.8.m.B.M.r.OX*X:X1X6X9X9X0X0X9X6X8X9X9X6X2X3XoXx.B c 8 X X X u } +.R.^.(.(.(.(.(.(.",
"(.(.(.(.(.).~.E.k.9.6.e.V.;X X XXX4X9X0X0X9X6X9X6X9X8X5X6X>XD.^ z , , : 2 2 2 q t t R.(.(.(.(.^.(.(.",
"(.(.(.(.(.(.~.(.^.h.9.1.z..XoX.XB.XXZ.x.u.u.t.t.u.u.t.t.x.t./ y 6 # & 2 6 0 0 - = $ K.^.(.(.).{.{.}.",
"(.(.(.(.(.(.(.(.^.E.J.5.8.:..X.XZ.7.:.I I S S S S S S S ~ ~ S q 2 & 2 4 0 0 0 = $ X L.^.(.(.).}.}.}.",
"(.(.(.(.(.(.(.(.^.^.(.f.! v .X@X#XQ a @ .               * - 6 0 0 0 0 6 0 0 0 & o   K.^.(.(.).{.}.}.",
"(.(.(.(.(.(.G.@.u t t t 5 ; s z V q 8 4 2 2 & - > 2 = - 6 6 6 0 3 $ # # # + o y G | ~.^.(.^.(._.)._.",
"(.(.(.(.^.^.#.| $ $ $ $ # . # % = 6 4 6 6 6 6 6 6 6 6 6 6 6 6 6 2 X X X O o o H | f.!.^.^.).^.^.^.^.",
"(.(.(.(.^.^. .H # $ # # # # # # % 2 6 6 6 0 0 0 0 0 0 0 8 8 4 : & O - 7 u u u ..#.!.!.!.^.^.^.^.^.^.",
"(.(.(.(.^.).u 7 2 2 3 2 2 3 2 2 3 6 0 0 0 0 0 0 0 0 0 6 8 : % X . ; t J @.@.@.K.I.~.~.^.^.R.R.R.^.^.",
"(.~.(.(.^.^.u - 6 6 0 0 0 0 0 0 0 0 0 0 0 0 0 6 6 6 6 6 > : % + + : C X.(.(.(.(.^.^.^.^.^.Y.L.Y.R.^.",
"W.W.W.~.).^.+.K . & 3 0 0 0 0 0 0 0 0 0 0 0 0 > X   . . 9 w j ) k s J X.(.(.(.(.(.(.(.(.^.Y.L.L.^.^.",
"W.W.Y.!.~.^.d...- 2 2 6 0 0 0 0 0 0 6 5 5 5 8 : % ; ; < e w j k k a T ! f.W._.(.(.(.(.^.^.^.R.R.^.(.",
"W.T.L.T.!.).L.d.u 7 - 2 6 0 0 0 0 0 6 2 2 2 , < < p i p d f f k k b U E o.J.}.(.(.(.^.^.^.^.^.^.(.(.",
"(.~.W.W.!.^.).^.^.K 7 X & 0 0 0 0 0 2 X . O < a $.%.<.<.n v s e f %.M n : } ~.).(.(._.^.^.^.^.^.(.(.",
"^.^.~.!.~.(.Y.G...u 7 $ 2 0 0 0 6 2 > * > 8 a n %.=.=.-.I S g 9 9 $.B T C +.).^.(.(.^.)._._._.(.(.(.",
").^.^.(.^.^.d...$ 3 6 6 6 0 0 6 2 X + w f L $.%.=.&.&._ ` ` D 8 > a A ! I.R.^.^.(.(.^.).}.}.{.(.(.(.",
"^.^.^.(.(.(.L.d.H y 3 & $ & & & % o * r l F U Y &.P L f F Z r % : R o.a.).~.^.^.(.(.(._.}.}.{.(.(.(.",
"^.^.^.^.(.(.T.K.| u 3 # # # # + # @ 2 r l F P P P h h d r r 6 % % X.i.G.^.~.^.^.(.(.(._.'.{.'.(.(.(.",
"^.^.!.^.(.(.(.(.^.K 7           . ; , D l D j k k f s i , ; ;   $ G.R.^.!.W.W.~.(.(.(.(.(.(.(.(.(.(.",
"(.^.^.^.(.(.(.(.^.G.d.O.O. .O. .} t 1 m T U v 8 * g J s.a.a.i.+.#.^.^.^.R.T.L.!.^.(.(.(.(.(.(.(.(.(.",
"^.^.^.^.(.(.(.(.^.^.^.!.T.L.T.I.a.z 1 B M M x < o C | ).(.(.(.(.(.(.^.^.!.T.L.R.^.^.(.(.(.(.(.(.(.(.",
"^.).^.^.(.(.(.^.^.^.).~.~.W.W.T.G. .E c x p < z H O.d.^.(.(.(.(.(.(.(.(.^.~.R.R.R.^.(.(.(.(.(.(.(.(.",
"^.(.^.(.(.(.(.(.(.(.(.(.^.^.^.^.Q.L.O.z 5 , % G +.L.Y.(.(.(.(.(.(.(.(.(.(.^.^.^.^.^.(.(.(.(.(.(.(.(.",
"(.(.(.(.(.(.(.(.(.(.(.(.^.^.(.(.^.^.f.t 3 # o J L.^.(.(.(.(.(.(.(.(.(.(.(.(.^.^.^.^.(.(.(.(.(.(.(.(."
};
