/* XPM */
static char *result[] = {
/* columns rows colors chars-per-pixel */
"50 50 214 2 ",
"   c #020202",
".  c #0A070C",
"X  c #0B0A0B",
"o  c #1C0E14",
"O  c #0E1212",
"+  c #091116",
"@  c #131414",
"#  c #161917",
"$  c #1C1C1C",
"%  c #22131A",
"&  c #1D221B",
"*  c #20241E",
"=  c #0E1721",
"-  c #171B26",
";  c #301727",
":  c #2C1E31",
">  c #1B242A",
",  c #1A2838",
"<  c #1E3038",
"1  c #232323",
"2  c #252827",
"3  c #2C2C2C",
"4  c #2D372A",
"5  c #31392D",
"6  c #292B3A",
"7  c #352535",
"8  c #283536",
"9  c #303030",
"0  c #37373A",
"q  c #471D33",
"w  c #521D36",
"e  c #472839",
"r  c #34412F",
"t  c #3A4534",
"y  c #3A4937",
"u  c #43533B",
"i  c #1D384B",
"p  c #362D43",
"a  c #273947",
"s  c #36384B",
"d  c #5A2846",
"f  c #4C344F",
"g  c #672749",
"h  c #742849",
"j  c #733647",
"k  c #6B3C5F",
"l  c #3B4B46",
"z  c #294558",
"x  c #364D56",
"c  c #294B62",
"v  c #354C68",
"b  c #3B596B",
"n  c #2B5B74",
"m  c #3A5975",
"M  c #2E637F",
"N  c #3A6279",
"B  c #424042",
"V  c #4B4B54",
"C  c #45595A",
"Z  c #785545",
"A  c #54674A",
"S  c #536A53",
"D  c #596F50",
"F  c #607755",
"G  c #657D5B",
"H  c #584968",
"J  c #465867",
"K  c #545768",
"L  c #485A76",
"P  c #585875",
"I  c #724966",
"U  c #4C666A",
"Y  c #596767",
"T  c #55706C",
"R  c #4D6579",
"E  c #546A73",
"W  c #57747B",
"Q  c #646667",
"!  c #6D706E",
"~  c #617E74",
"^  c #617C7A",
"/  c #74757B",
"(  c #81305C",
")  c #903058",
"_  c #885C79",
"`  c #A45C7E",
"'  c #6A845E",
"]  c #6D8869",
"[  c #738D6A",
"{  c #7A986B",
"}  c #66857A",
"|  c #799776",
" . c #809E70",
".. c #84A374",
"X. c #8AAB7A",
"o. c #8AAC79",
"O. c #2F6683",
"+. c #3C6C89",
"@. c #3A7797",
"#. c #496784",
"$. c #5B6B82",
"%. c #54768F",
"&. c #466E91",
"*. c #437695",
"=. c #6B7A8C",
"-. c #6A7E95",
";. c #956C88",
":. c #897B93",
">. c #A47490",
",. c #3B84A8",
"<. c #6C8887",
"1. c #728A8C",
"2. c #6C9389",
"3. c #749684",
"4. c #79978A",
"5. c #6C809B",
"6. c #77889A",
"7. c #6B9A90",
"8. c #7C9597",
"9. c #7DA188",
"0. c #6E8BA2",
"q. c #798BA2",
"w. c #6D92AC",
"e. c #7996B0",
"r. c #82828C",
"t. c #809F8B",
"y. c #878790",
"u. c #8B8B94",
"i. c #8B919E",
"p. c #93939B",
"a. c #85AA8A",
"s. c #8DB18B",
"d. c #92B583",
"f. c #95BB8C",
"g. c #98BC88",
"h. c #86AA92",
"j. c #8AB595",
"k. c #96BD93",
"l. c #98BC94",
"z. c #8799A7",
"x. c #9194A2",
"c. c #939DB0",
"v. c #A893A7",
"b. c #B594AC",
"n. c #90AEA5",
"m. c #91A4AD",
"M. c #8AA8B8",
"N. c #98A8B8",
"B. c #99B3BC",
"V. c #A0A1AD",
"C. c #A4AABA",
"Z. c #B2B2BB",
"A. c #C19DB6",
"S. c #9BC28C",
"D. c #9BC394",
"F. c #9AC699",
"G. c #A1C78D",
"H. c #A2CD8D",
"J. c #A0C797",
"K. c #A4CB94",
"L. c #A4CD99",
"P. c #A7D292",
"I. c #AAD395",
"U. c #ACD896",
"Y. c #A7D099",
"T. c #AED499",
"R. c #AED99B",
"E. c #B0D79B",
"W. c #B2DC9D",
"Q. c #B5E09F",
"!. c #9BC0A6",
"~. c #A7C7A3",
"^. c #B3D7A5",
"/. c #B6E2A0",
"(. c #B9E4A4",
"). c #BDE6A9",
"_. c #C0E7AC",
"`. c #C2E9AF",
"'. c #C0E2B3",
"]. c #C5EAB3",
"[. c #C8EBB5",
"{. c #CAEDB8",
"}. c #98AEC3",
"|. c #98B1C5",
" X c #9AB3C4",
".X c #A1B5C4",
"XX c #ACB3C3",
"oX c #A8B9C8",
"OX c #ABBACA",
"+X c #B9B9C7",
"@X c #B6B5C9",
"#X c #ACBDD2",
"$X c #CBAFC6",
"%X c #C8B4C9",
"&X c #B0C0CE",
"*X c #B4C2D1",
"=X c #BCC4D4",
"-X c #BCC9D6",
";X c #C6C5D5",
":X c #CACAD7",
">X c #C4CBDA",
",X c #CACDDC",
"<X c #D5CADB",
"1X c #CAD3DD",
"2X c #CACFE1",
"3X c #D8CFE1",
"4X c #CDD3E2",
"5X c #D4D5E4",
"6X c #D7D9E7",
"7X c #D9D9E6",
"8X c #DCDCEB",
"9X c #E2E2EF",
"0X c #E2E2F2",
"qX c #E8E8F8",
/* pixels */
"/./././././././././././.W.T.T.E./././././././././././././././././././././.W.T.E.E./././././././././.",
"/./././././././././././.W.E.W.W./././././././././././././././././././././.W.W.E.W.Q././././././././.",
"/././././././././././././././././././././././.(./.(././././././././././././././././././././././././.",
"/././././././././././././././././././././.(.[.~.l.l.Y./././././././././././././././././././.(.[.[.[.",
"/././././././././././././././././././././.(.{.~.h.9.D.Q././././././././././././././././././.(.{.{.{.",
"/././././././././././././././././././.(././.{.4.E U 9.Q./././././././././././././././././././.{.{.{.",
"/./././././././././././././.R.T.K.<.2.l.L.L.^ 1.z.8.<.=.W } 3.Y./././.Q./././.E.E.E.Q././././.).).(.",
"/././././././././.(.(./././.Y.K.l.W W s.F.D.J 6.N.z.-.R U U ^ D.W./.(.(././.Q.E.E.T.W.Q././././././.",
"/./././.Q.(.Q.(.{.{.[.Q././.k.a.t.6.6.n.!.l.5.q.e.N.z.q.-.-.=.t.j.'.].[././././.W.U.U.W.Q.Q.Q.Q././.",
"/./././.Q.Q.(.(._.).).Q././.| <.W OXOXB.B.B.=X}.e.e.|.-X#X@Xc.$.} L.^.)././././.Q.W.Q.Q.Q.U.U.U.E./.",
"/.W.Q./.(.Q.Q.(././././././.^ T J 2X5XoX|. XqX Xw.w.&XqX0X5X@XR U j.Y./././././.Q./.Q.Q.Q.U.H.H.W./.",
"T.T.T.Q.Q.Q.Q.Q././././././.R.K.f.V Y C.>X4X1X1X5X2X4X5X/ Q ! f.Y.R.^./././././././.Q.Q.Q.P.H.H.U./.",
"T.T.P.E.W.Q.Q.Q././././.).`.F.D.s.V K i.XX+X4X4X5X;X%X@X! Y Y a.F.R.W././.(._././././././.R.U.U.Q.Q.",
"T.I.H.T.E.Q.Q.(././.Q.Q.`.{.S.s.t.C J <.c.XX4X6X6X;XZ.p.E K C 3.j.R.W././._.{./././././././.Q.Q.Q.Q.",
"Q.W.E.T.E.Q.Q.Q./.Q.Q.Q.Q.Q.9.%.m N m v J W 9X7X6XZ./ u b m R m W D.T././.(.(./././././././././.Q./.",
"Q.W.E.W.W.Q.Q.Q.Q.Q.Q.U.S.o.7.1.5.0.5.K H P -X-X=XV./ e $.-.0.-.<.4.a.S././././././././.).).)./.Q./.",
"/././././././.Q.T.R.R.Y.| x z.C.,X-XXX;.I I }.M.}.z._ h v.@X;X>XXXR T ] W.Q./././././.).{.{.[./././.",
"/./././././././.Q.F.F.h.8.8.XX;X6X4X%Xb.>.>.:.:.:.:.;.>.%X:X5X5X;Xz.8.8.j.F.Q././././.(.{.{.[./././.",
"/./.W./././././.(.F.j.7.z.B.;X>X5X6X5X%XA.b._ _ _ ;.>.A.:X3X6X5X,XXXB.m.7.j.R././././.(.].].]./././.",
"/.W.T.Q./././.(.Q.j.7.%. XqX8X6X5X8X0X0X3X$X) ) ) ` A.qX0X0X8X5X5X0X4X&X+.7.J./././././././././././.",
"/.Q.W././././.R.W 6.M.#X.X X-X1X8X5X5X8X7X<Xb.A.A.$X<XqX8X8X5X8X4X*XoX.XoXz.<.4.k./././././././././.",
"/././././././.L.m 6.C.,X.XM.*X1X8X5X5X7X9X8X5X7X0X0X0X0X6X5X5X8X4XB. X X6Xc.R <.a./././././././././.",
"/./././././.Q.R.4.8.8.z.N.#X>X3X7X8X8X7X7X7X7X8X0X0X0X8X8X7X8X7X5X-XOX}.z.6.4.a.k./././././././././.",
"/././././.Q.(.W.D.t.<.$.N.4X4X5X5X0X0X7X5X5X8X0X0X0X8X5X0X0X0X5X5X4X+XC.W 1.s.J.L./././././././././.",
"/./././././././.(.9.^ m c.0X6X5X5X0X0X7X5X5X0X0X0X0X8X3X0X0X0X5X4X8X>XC.z } K./././././././././././.",
"/././././././.L.v 0.C.4XM.*. X-X9X5X5X8X8X0XqX0X6X3X6X0X5X5X5X8X1Xw.#.c       u ] /././././././././.",
"/././././.Q./.R.W 8.m.oXM.w. X#X,X5X5X8X9X9X0X8X6X5X8X8X5X5X,X%XC.%.b z X X X y F g.W./././././././.",
"/././././.(.Q.R.3.4.z.m.M.}. XOX#X2X6X8X9X8X8X6X8X5X8X6X6X1X;Xp./ x a 6 # # # 5 u G U./././././././.",
"/./././././././.R.h.2.%.N.8XOXN.m.4X0X8X9X8X3X6X8X8X5X5X8X:XZ.V 2 O O @ 3 9 3 3 3 1 H././././.[.[.[.",
"/././././././././.D.9.7.z.N.N.N.B.x.x.p.u.u.r.y.u.u.y.r.p.p.u.B 1 @ @ $ 9 9 9 2 * @ G./././.(.{.{.{.",
"/./././././././.Q.Q.Q.K.} z c.XX:XV - O                 # % 3 3 9 9 9 9 9 9 9 % @   G./././.(.{.{.{.",
"/././././././.R.F F F S l , V Q ! 0 * $ # # @ # @ @ # # 1 2 3 9 3 * $ # $ # # 4 t A T././././.(.).(.",
"/./././.Q.Q.Q.H.r r r 4 > # 8 0 0 3 1 1 1 1 1 1 1 1 * 1 3 2 3 3 3 # o @ O O @ t A ' I.Q.Q.Q.Q.Q././.",
"/./././.Q.(.P.o.  X   X X   X   X $ 3 3 9 3 9 9 9 9 9 3 3 6 3 3 1 @ O O # & # A [ U.E.U.Q.Q.Q.Q././.",
"/.Q././.Q.Q.A r * 1 % 1 1 * & > 1 3 3 9 3 9 9 9 9 9 9 9 2 > - o O - 8 l { { { o.G.W.W.Q.Q.U.U.U.W./.",
"Q.Q.Q./.Q.Q.y @ 3 3 9 9 9 9 3 3 9 9 9 9 9 9 9 9 3 3 3 3 > - = . . , x U /./.(./.Q.Q.Q.Q.Q.P.H.P.U./.",
"T.T.T.W.Q./...G @ & 1 9 9 9 9 9 3 9 9 9 9 9 9 1 # @ @ @ = - : w w L n N S | T./././././.Q.P.H.H.R.Q.",
"T.T.P.E.W./.S...# * 1 3 3 9 9 9 9 9 9 3 8 3 9 1 # O + + $ - : g g #.#.+.l | E.Q././././.Q.Q.U.U.W./.",
"T.I.H.T.E././.H.# * 1 3 3 9 9 9 9 9 3 3 3 3 6 > = + + + = - 7 h ( %.&.@.8 } ^.Q././././.Q.Q.Q.Q././.",
"Q.W.T.T.E./././.Q.' u X % 9 9 9 9 9 3 @ X   - i M @.@.,.f f q - , i v E (./.Q.Q././.Q.(.Q.Q.Q.Q././.",
"Q.Q.R.Q.Q.Q.Q.R.o.D t O * 9 9 9 9 2 1 o % % i c O.*.*.&.s f q l l J T ~ Q.Q.Q.Q./././.(._.).(.Q././.",
"Q.Q.Q.Q.Q.Q.Q.P.u 5 2 * 2 9 9 9 3 $ % q q d c O.+.&.#.H p 0 B ] | | ..X.Q.Q.(.Q./././.).{.{.{./././.",
"Q.Q.Q.Q.Q.Q.Q.P.& * 2 3 3 3 3 2 1 X o w g k +.@.@.&.P j 7 7 l g.R.R.Q.W.(.Q.Q.(./././.(.{.{.{.Q././.",
"Q.Q.Q.Q.(.Q.Q.P.u r 4 * & % * % - + @ e f k L L #.P I j 7 6 l g././.Q.Q.Q.Q.W.Q./././.(.`.`.`./././.",
"(.Q.R.Q.Q.(.Q.Q.Q.[ u             = - , 6 7 h h h j j Z 3 8 l g././././.T.T.T.W././././.(./././././.",
"Q.Q.Q.Q.Q.Q.Q.Q.Q.o. .F F D F F G ] [ } [ ! ; 7 p f J E z l C S././././.U.I.P.T.Q./././././././././.",
"Q.Q.Q.Q.(.Q.Q.(.Q.P.g.X... ...X.d.d.d.f.d. .# 2 a c m R z x C S././././.U.I.H.P.Q.Q././././././././.",
"(.Q.Q.Q.Q.Q.Q.Q.Q.Q.Q.Q.W.T.T.W././././.K.d.4 8 a z c n b U } F././././.Q.W.U.U.Q.Q././././././././.",
"Q.Q.Q.(.Q./././././././.Q.Q.Q.Q.Q.Q././.Q.P...F r > , < ] | S.U./././././.Q.W.W.Q./././././././././.",
"(.Q.(.Q././././././././.Q.Q.Q.Q./.Q././.Q.Q.Q.{ t @ O O { S.Q.Q././././././././././././././././././."
};
