/* XPM */
static char *result[] = {
/* columns rows colors chars-per-pixel */
"50 50 139 2 ",
"   c #232624",
".  c #252827",
"X  c #262A28",
"o  c #2A2D2C",
"O  c #2E312F",
"+  c #2F3230",
"@  c #313432",
"#  c #353935",
"$  c #373C38",
"%  c #393F3A",
"&  c #3E433E",
"*  c #41483F",
"=  c #3E4141",
"-  c #424544",
";  c #444845",
":  c #464A48",
">  c #494E4A",
",  c #4D534C",
"<  c #4E5C4A",
"1  c #515751",
"2  c #545C54",
"3  c #575A58",
"4  c #595E5A",
"5  c #52604E",
"6  c #5C635C",
"7  c #5D6A59",
"8  c #62745A",
"9  c #667A5E",
"0  c #687A5F",
"q  c #626564",
"w  c #656B66",
"e  c #666C68",
"r  c #696E6B",
"t  c #667363",
"y  c #6B7E63",
"u  c #6C726D",
"i  c #6E7170",
"p  c #717673",
"a  c #747A75",
"s  c #757A78",
"d  c #797D7B",
"f  c #6E8464",
"g  c #6E8068",
"h  c #728A67",
"j  c #71836A",
"k  c #758D6A",
"l  c #758270",
"z  c #7B8E74",
"x  c #7C837C",
"c  c #7E8B7A",
"v  c #7D9374",
"b  c #7F9A73",
"n  c #859D79",
"m  c #89A47C",
"M  c #8CA87F",
"N  c #7F8580",
"B  c #818683",
"V  c #838A85",
"C  c #868B89",
"Z  c #898E8B",
"A  c #879086",
"S  c #8A9686",
"D  c #8C938D",
"F  c #8F9B8B",
"G  c #8E9491",
"H  c #919693",
"J  c #939995",
"K  c #969C99",
"L  c #999E9C",
"P  c #8CA980",
"I  c #90A886",
"U  c #98AC8F",
"Y  c #95B885",
"T  c #9ABB8A",
"R  c #94A292",
"E  c #99A596",
"W  c #98AA91",
"Q  c #9CA29E",
"!  c #9BB491",
"~  c #9FB298",
"^  c #A0AA9F",
"/  c #9EA4A1",
"(  c #A1A6A3",
")  c #A3A9A4",
"_  c #A6ABA9",
"`  c #AAAEAC",
"'  c #ACB2AD",
"]  c #B0B7AF",
"[  c #ACAFB0",
"{  c #AEB2B1",
"}  c #B1B6B4",
"|  c #B4B9B6",
" . c #B6BAB9",
".. c #BABEBD",
"X. c #9EC08C",
"o. c #A2CE8D",
"O. c #A2C592",
"+. c #A7CD93",
"@. c #A8CF95",
"#. c #AACD98",
"$. c #A7D391",
"%. c #AAD395",
"&. c #ACD896",
"*. c #AED499",
"=. c #AED999",
"-. c #B0D79B",
";. c #B3DC9D",
":. c #B5E09F",
">. c #B5D6A4",
",. c #B9D8AA",
"<. c #B7C2B6",
"1. c #BCC2BE",
"2. c #BEC8BD",
"3. c #B6E2A0",
"4. c #B9E4A4",
"5. c #BDE6A9",
"6. c #C8ECB5",
"7. c #CAEDB8",
"8. c #BCBFC0",
"9. c #BEC3C1",
"0. c #C1C5C4",
"q. c #C3C9C5",
"w. c #C5CAC9",
"e. c #C9CECC",
"r. c #C5D0C4",
"t. c #CAD1CC",
"y. c #CFD8CE",
"u. c #CCCFD0",
"i. c #CED2D1",
"p. c #D2D6D5",
"a. c #D4DBD5",
"s. c #D5D7D8",
"d. c #D6DAD9",
"f. c #D9DCDC",
"g. c #D0ECC4",
"h. c #DCE0DF",
"j. c #D9F0D0",
"k. c #DCDFE0",
"l. c #DEE1E1",
/* pixels */
"3.3.3.3.3.3.3.3.3.3.3.3.;.*.*.-.:.3.3.3.;.:.V d Z Z Z F :.:.:.:.3.3.3.3.3.;.*.*.-.3.3.3.3.3.3.3.3.3.",
"3.3.3.3.3.3.3.3.3.3.3.3.;.-.;.;.:.3.3.3.F B t.a.a.a.y.2.- e j.g.3.3.3.3.3.3.=.=.>.3.3.3.3.3.3.3.3.3.",
"3.3.3.3.3.3.3.3.3.3.3.3.3.3.3.3.3.3.3.3.F B r.a.a.a.y.1.* w j.g.4.3.3.3.3.3.3.3.3.3.3.3.3.3.3.3.3.3.",
"3.3.3.3.3.3.3.3.3.3.3.3.3.3.3.3.3.3.S d 2.y.f.d.p.p.a.a.d.0.B a = g 3.3.3.3.3.3.3.3.3.3.3.3.4.6.6.6.",
"3.3.3.3.3.3.3.3.3.3.3.3.3.3.3.3.>.;.R V 1.a.d.d.s.s.s.s.d.q.Z n 2 g $.#.@.=.3.3.3.3.3.3.3.3.4.7.7.7.",
"3.3.3.3.3.3.3.3.3.3.3.3.3.3.3.3.W C q.a.a.d.f.f.k.k.s.s.d.d.p.p.h./ - - = v 3.3.3.3.3.3.3.3.4.7.7.7.",
"3.3.3.3.3.3.3.3.3.3.3.3.3.3.#.O.E K q.a.d.d.f.f.f.f.s.f.s.s.p.p.d._ r w q c T O.=.*.3.3.3.3.3.4.4.5.",
"3.3.3.3.3.3.3.3.4.4.4.3.3.3.U B | a.a.y.d.f.h.h.p.s.k.k.f.f.s.s.d.d.p.r.9.N = b =.*.3.3.3.3.3.3.3.3.",
"3.3.3.3.3.3.3.4.7.7.6.3.;.#.~ J 1.a.p.p.s.s.k.k.s.s.f.f.s.f.f.s.p.s.p.t.9.N = m =.=.=.=.3.3.3.3.3.3.",
"3.3.3.3.3.3.3.3.5.5.5.3.! B ` y.a.d.f.f.s.p.s.d.f.s.f.s.f.f.f.f.k.s.s.e.9.N = m 3.;.=.:.3.&.$.&.=.3.",
"3.;.:.3.3.3.3.3.3.3.3.3.I r ^ a.d.d.f.f.s.s.d.d.f.f.s.s.f.f.s.f.k.i.u.9.} Z q z P -.3.3.3.$.o.o.=.3.",
"*.*.*.:.3.3.3.3.3.3.3.3.v ; D d.f.l.f.s.f.f.d.s.f.f.s.f.f.f.f.f.k.p.9.[ R / / e = T 3.3.3.$.o.o.=.3.",
"*.*.o.;.;.:.3.3.3.3.O.b c d ` d.d.d.d.s.d.f.f.f.f.f.d.f.s.s.f.p.8.| [ / / ) } u = ! 4.3.3.=.&.&.:.:.",
"*.%.o.*.-.3.3.3.3.3.P : N  .q.d.d.d.p.s.f.f.l.l.s.f.s.s.s.s.f.e.L / L Q / { 9.p = X.3.3.3.3.3.3.3.:.",
":.;.*.*.-.3.3.3.3.3.M ; B <.q.e.t.t.p.d.s.s.l.l.s.s.f.f.s.p.e.9.L L / _ } 9.9._ N z v @.3.3.3.3.3.3.",
":.;.;.;.;.:.3.3.;.;.m - B q.0.0.9.0.s.f.p.p.f.l.d.d.l.k.f.s.8.| K / K <.9.9.a.h.l.w = X.5.5.5.3.3.3.",
"3.3.3.3.3.3.3.3.T y l d J [ | 8.8.8.w.e.e.e.s.s.f.f.s.s.u.0._ ) ( _ } 9.d.f.h.h.a.' Q j l 5.g.3.3.3.",
"3.3.3.3.3.3.3.3.T : w E Q L ` ......8.9.0.0.s.s.f.f.p.p.w...L L ) { 9.9.p.f.h.d.y.a.y.e = ,.7.3.3.3.",
"3.:.;.3.*.7 7 7 r n L  .` L ( `  .w.9.9.0.0.` ` [ [ e.w.` ) L L / _ 9.p.f.d.d.d.h.a.9.t = 4.5.3.3.3.",
"3.;.*.;.#.= = - 3 L ` 0.] L L L ..e.0.9.0.8.L K ( / w.0.L L ( L L { 9.9.h.f.p.f.h.9.9.q = @.4.3.3.3.",
"3.;.3.0 0 E Q ^ `  .8.8.8...` L J H / (  .8....... ._ ( L / ( / K / ( 8.p.9.9.9.9.9.9.7 = @.3.3.3.3.",
"3.3.:., 4 <.1.0.0.0.0.8.9.0.[ K C x H L  .8.0.0.0.9.L L L ( ( / / L K [ 9.9.9.9.9.9.9.w = @.3.4.3.3.",
"3., , ] ] 1.1.0.0.0.8.0.0.9.[ L L / w.s.s.s.s.s.8.8.0.8.H K / / ) ( / { 9.9.9.9.9.9.y.^ R t 2 4.3.3.",
"3.& & 1.1.0.1.0.1.1.0.0.9.8.` L / ( u.k.f.k.f.f.9.9.w.0.H H L / ) ) ( 8.9.9.9.9.9.9.9.' / = = 4.3.3.",
"3.* - q.q.1...9.9.0.0.8.9.w.( C  .d.s.s.f.f.k.f.s.f...9.e.9./ L K K / / / 8.9.9.9._ Q Q Q ^ /   X 3.",
":.: * q.q.1.8.1.8.0.0.8.0.0._ C  .s.d.f.f.f.f.f.s.f...8.e.0.( L K L / / / _ 9.9.9.) Q Q Q ^ ^   . 3.",
"> Q Q 9.0.9.0...8.0.0.8.{ / [ 8.i.f.k.l.f.s.f.k.8.9.8.8.0.0.9...L L / N e e i d N Q Q / _ E Q / / # ",
"> ( ^ 9.1.0.0...8.0.0.8.{ ( [ 8.i.f.f.k.f.s.s.f.8.8.9.9.0.9.8.| / Q Q N p s s N A G Q / / Q K ~ ~ # ",
"; 2.2.9.0...8.0.0.8.[ K [ 0.0.0.p.f.p.p.s.f.0.0.0.0.0.0.8.0...} / K N / 9.9.9.' / Z N K / / / Q / + ",
"= 1.2.9.1.8.0.0.0.8.} ( [ 0.0.0.u.p.u.u.i.s.0.0.0.8.0.0.0.8.8. .Q L K [ 9.9.| _ / D N J L / / / / + ",
"O 0.2.1.8.0.0.0.0.0.0.e.0.8.8...8.0.0.w.0.0.9.9.8.8.....8.0.e.8.K / 9.9.9.' K / / G D J R / / _ / O ",
"O 2.0.1.1.0.1.0.8. .8.e.0.8.8.8.0.9.0.0.0.8... . .....8.8.0.0.8./ _ { 8.9.` K / / G D H J Q / ^ / O ",
"O <.<.0.q.......] / ` 0.8...8.w.9.9.9.9.9.9./ Q Q / 9.9.9.9.9.9.9.9.N _ _ ( ( L L L L N K L L _ / @ ",
"8 B n r.q.1.| ] ` H ( 0.8...0.0.9.9.9.9.9.} Q Q / / } } 9.9.9.9.9.} N / / ( ( / N L _ N N L K N F + ",
";.o   q.q.1.] / L C L 0.8.8.0.w.9.9.9.9._ / Q K / / / / / _ 9.9.9.[ N L L L / / _ / L N N N N p u @ ",
";.f f a d ] ] / H a H 0.0.8.0.0.9.9.9.9._ K Q / Q / Q Q / / _ | 9.9.N N L L / L / / / N N 6 3 2 1 k ",
"*.*.*.  O ^ ` / H q C 9.8.0.0.8.9.9.9.9./ R ) _ L Q K K Q Q / _ 9.} N N _ / ( / Q ) Q N e # o = # 3.",
"*.*.+.0 0 w i n C r C [ ..q.0.1.9.9.9.<./ L / / Q / Q Q Q Q Q / } / s N L N L / Q Q N u 4 g h h k 3.",
"*.*.o.*.M o * B x p B / ] e.0.1.9.9._ / / _ E K / / _ _ Q Q Q Q Q N N s N N L ( / N N 7 = @.3.3.3.3.",
":.;.*.*.;.n h 6 i Z H ( ) ` | 0.9.9._ / / / / / Q Q / / Q Q / / Q N N r q N N L R N N = = o.3.3.3.3.",
"3.:.&.;.:.4.O.* 4 E Q ( L J ] 0.9.9._ / / / ^ / Q Q Q / L / ( ^ / K N w = r Z Z N N l = @ #.5.3.3.3.",
"3.3.3.3.3.4.M % 1 E Q L / / ( ( _ _ _ / / E / / ^ ( Q Q / L / Q Q K N e , > > : = < < b O.7.5.3.3.3.",
"3.3.3.3.3.3.M % , / E L Q ( / L / / / / / K / / Q Q Q Q Q L Q Q / J C r , = # # = & & X.g.g.g.3.3.3.",
"3.:.:.3.3.3.:.M n > 6 x F ( Q Q G C Q Q L / K K ( ( Q ^ L / / / / R S 6 @ 9 Y Y X.X.X.&.5.5.5.3.3.3.",
"3.;.&.:.3.3.3.3.M O * a n ( / L Z N H Q Q Q J J ( ) ( ( L L ^ / / Q S 6 o f &.:.3.3.3.3.4.3.3.3.3.3.",
"3.:.:.3.3.3.3.3.5.+.n $ # # i ( V a K / Q L ) _ L L ( L ( / / H a 7 & g X.O.o.&.3.3.3.3.4.3.3.3.3.3.",
"3.3.:.3.3.3.3.3.4.3.n O o o w ) V i R ) Q K ` ` Q K Q ( ^ ( ^ H u 2 o h =.@.o.&.=.3.3.3.3.3.3.3.3.3.",
"3.3.3.3.3.3.3.3.3.3.:.:.;.*.0   o + N Q Q Q Q Q Q Q Q K S p   o & y 3.3.3.=.=.=.=.3.3.3.3.3.3.3.3.3.",
"3.3.3.3.3.3.3.3.3.3.3.3.:.;.f   o O n L Q ( Q Q Q / Q L F p . o # 9 3.3.3.:.=.;.3.3.3.3.3.3.3.3.3.3.",
"3.3.3.3.3.3.3.3.3.3.3.3.3.:.3.3.:.:.5 @ o o o o O O O O O < :.:.3.3.3.3.3.3.3.3.3.3.3.3.3.3.3.3.3.3."
};
